<svg width="169" height="153" viewBox="0 0 169 153" fill="none" xmlns="http://www.w3.org/2000/svg">
<path d="M107.99 41.2754C106.872 47.0319 105.775 60.721 110.339 69.4249" stroke="#C1631F" stroke-width="3"/>
<path d="M86.6808 42.4844C84.4436 51.81 80.4727 70.6685 82.4861 71.4974C85.0029 72.5336 85.5063 72.879 86.6808 72.1882C87.8552 71.4974 88.3586 67.6981 87.5197 67.8708" stroke="#C1631F" stroke-width="3"/>
<path d="M61.1768 12.4349C61.5683 11.1684 62.9888 8.67008 65.5392 8.80824C68.0895 8.94639 69.8457 9.21112 70.4049 9.32622" stroke="#C1631F" stroke-width="3"/>
<path d="M106.48 12.4336C108.158 12.7214 111.01 13.9879 111.01 17.4418C111.01 21.5937 111.178 24.177 105.641 27.1128C101.211 29.4615 97.1957 28.5519 95.7416 27.8036M59.5 36.6111C61.7371 39.3743 65.6409 45.9022 63.3591 49.9088" stroke="#C1631F" stroke-width="3"/>
<path d="M62.1846 59.4082C62.2405 64.8194 61.245 76.1943 56.8154 78.4048" stroke="#C1631F" stroke-width="3"/>
<path d="M70.0703 42.6562C71.916 46.1102 78.426 51.4983 70.9092 75.814M95.5737 48.1825C94.3992 51.7516 93.5938 62.9654 99.7683 79.2679" stroke="#C1631F" stroke-width="3"/>
<path d="M85.5061 17.9594C84.7231 19.341 82.1504 21.2752 78.1235 17.9594C74.0967 14.6436 74.9915 12.8936 75.9423 12.4331C79.0744 10.9364 86.7143 8.39201 92.2176 10.1881C97.721 11.9841 98.6494 16.1173 98.4257 17.9594C98.6493 20.5499 96.3784 25.9382 85.5061 26.7671C74.6337 27.5961 69.6785 24.8099 68.5599 23.3132L63.5264 17.9594" stroke="#C1631F" stroke-width="3"/>
<path d="M46.911 20.0332C49.7063 29.4512 54.1564 50.6276 49.5945 59.9898C43.8921 71.6926 34.5 90.4171 34.5 90.4171C34.5 90.4171 42.3827 94.7638 43.5567 89.2468C44.4959 84.8332 47.9732 83.8969 49.5945 83.3954C51.7189 83.061 55.4981 83.1948 53.6197 86.4047C51.2717 90.4171 45.4016 97.9403 43.5567 99.4449C41.7118 100.95 44.2276 104.795 46.911 102.12C49.5945 99.4449 56.1354 98.4418 58.6512 94.4295C61.1669 90.4171 60.6638 85.0672 65.6953 81.8908C69.7205 79.3496 71.9567 81.835 72.5717 83.3954C72.1803 85.736 72.1021 90.4171 74.9197 90.4171C78.4418 90.4171 81.1252 89.414 81.1252 86.4047C81.1252 83.9973 82.8024 83.3954 83.641 83.3954C85.0945 83.061 88.0016 83.1948 88.0016 86.4047C88.0016 90.4171 86.4921 95.5997 90.0142 102.12C92.8318 107.336 95.3252 104.293 96.2197 102.12C97.2819 99.5564 99.2721 93.627 98.7355 90.4171C98.0646 86.4047 95.7166 85.0672 98.7355 81.8908C101.754 78.7143 101.922 84.5657 103.096 86.4047C104.035 87.8759 109.19 92.3675 111.65 94.4295C112.6 94.4295 114.434 93.627 114.165 90.4171C113.897 87.2072 112.376 84.3985 111.65 83.3954C111.65 83.3954 115.494 90.8658 119.365 94.4295C124.228 98.9067 135.255 108.671 134.459 102.12C134.022 98.5245 129.26 94.4295 129.26 94.4295C125.85 90.9186 119.532 82.4257 121.545 76.5409C119.476 62.7205 116.144 33.2406 119.365 25.8846" stroke="#C1631F" stroke-width="3"/>
<path d="M120.64 21.1852C120.529 22.8725 119.604 24.5577 117.745 26.164C115.879 27.7753 113.161 29.2235 109.722 30.3915C102.851 32.7253 93.3924 33.8425 82.9949 33.12C72.5975 32.3975 63.3706 29.9819 56.8664 26.7187C53.6112 25.0855 51.1069 23.2745 49.4689 21.4197C47.8359 19.5706 47.1392 17.7728 47.2499 16.0855C47.3606 14.3981 48.2857 12.7129 50.1453 11.1066C52.0107 9.49527 54.7288 8.04712 58.1677 6.87911C65.039 4.5453 74.4976 3.42813 84.8951 4.15062C95.2925 4.87311 104.519 7.28871 111.024 10.5519C114.279 12.1851 116.783 13.9961 118.421 15.8509C120.054 17.7 120.751 19.4978 120.64 21.1852Z" stroke="#C1631F" stroke-width="3"/>
<path d="M18.7207 149.715V152H2.46094V131.36H18.1201V133.646H5.25879V140.267H17.2412V142.522H5.25879V149.715H18.7207ZM31.9189 150.022C33.2666 150.022 34.5215 149.817 35.6836 149.407C36.8555 148.997 37.8027 148.44 38.5254 147.737V144.017H32.3584V141.673H41.1035V148.792C40.0098 149.905 38.667 150.77 37.0752 151.385C35.4932 151.99 33.7744 152.293 31.9189 152.293C29.7705 152.293 27.9199 151.858 26.3672 150.989C24.8145 150.12 23.6182 148.885 22.7783 147.283C21.9385 145.672 21.5186 143.772 21.5186 141.585C21.5186 138.235 22.417 135.643 24.2139 133.807C26.0107 131.971 28.5352 131.053 31.7871 131.053C34.0723 131.053 35.9277 131.438 37.3535 132.21C38.7793 132.981 39.8779 134.217 40.6494 135.916L37.9834 136.707C37.3975 135.535 36.5869 134.681 35.5518 134.144C34.5264 133.606 33.2471 133.338 31.7139 133.338C29.3311 133.338 27.5098 134.061 26.25 135.506C24.9902 136.941 24.3604 138.968 24.3604 141.585C24.3604 144.192 25.0293 146.253 26.3672 147.767C27.7051 149.271 29.5557 150.022 31.9189 150.022ZM62.0801 149.715V152H45.8203V131.36H61.4795V133.646H48.6182V140.267H60.6006V142.522H48.6182V149.715H62.0801ZM68.6279 144.09V152H65.8301V131.36H68.6279V141.702L78.5742 131.36H81.8701L73.0811 140.325L83.042 152H79.5703L71.3232 142.039L68.6279 144.09ZM88.3301 138.289V152H85.8398V131.36H89.0918L100.254 149.056C100.137 147.132 100.078 145.745 100.078 144.896V131.36H102.598V152H99.2285L88.1836 134.422C88.2031 135.066 88.2324 135.711 88.2715 136.355C88.3105 137 88.3301 137.645 88.3301 138.289ZM115.767 152.293C114.077 152.293 112.603 151.98 111.343 151.355C110.083 150.73 109.106 149.837 108.413 148.675C107.72 147.513 107.373 146.121 107.373 144.5V131.36H110.171V144.266C110.171 146.15 110.649 147.581 111.606 148.558C112.563 149.534 113.945 150.022 115.752 150.022C117.607 150.022 119.048 149.52 120.073 148.514C121.108 147.498 121.626 146.019 121.626 144.075V131.36H124.409V144.236C124.409 145.906 124.053 147.342 123.34 148.543C122.637 149.744 121.636 150.672 120.337 151.326C119.048 151.971 117.524 152.293 115.767 152.293ZM146.968 141.468C146.968 143.646 146.543 145.521 145.693 147.093C144.854 148.665 143.677 149.876 142.163 150.726C140.659 151.575 138.911 152 136.919 152H129.199V131.36H136.025C139.521 131.36 142.217 132.239 144.111 133.997C146.016 135.745 146.968 138.235 146.968 141.468ZM144.155 141.468C144.155 138.909 143.452 136.961 142.046 135.623C140.649 134.275 138.623 133.602 135.967 133.602H131.997V149.759H136.597C138.13 149.759 139.458 149.422 140.581 148.748C141.714 148.074 142.593 147.117 143.218 145.877C143.843 144.637 144.155 143.167 144.155 141.468ZM167.139 149.715V152H150.879V131.36H166.538V133.646H153.677V140.267H165.659V142.522H153.677V149.715H167.139Z" fill="#2C2A29"/>
</svg>
