<svg width="120" height="120" viewBox="0 0 120 120" fill="none" xmlns="http://www.w3.org/2000/svg">
<path d="M26.25 57.5C28.5 59.875 35.475 64.25 45.375 62.75" stroke="#C1631F" stroke-width="2" stroke-linecap="round"/>
<path d="M26.25 65.75C28.9853 68.3147 37.4647 73.0392 49.5 71.4194" stroke="#C1631F" stroke-width="2" stroke-linecap="round"/>
<path d="M104 44.75C104 45.0913 103.846 45.516 103.364 46.0314C102.876 46.5517 102.108 47.1018 101.034 47.6567C98.8883 48.7652 95.7177 49.7931 91.7162 50.6673C83.7295 52.4123 72.6482 53.5 60.375 53.5C48.1018 53.5 37.0205 52.4123 29.0338 50.6673C25.0323 49.7931 21.8617 48.7652 19.7158 47.6567C18.6416 47.1018 17.8738 46.5517 17.3865 46.0314C16.9038 45.516 16.75 45.0913 16.75 44.75C16.75 44.4087 16.9038 43.984 17.3865 43.4686C17.8738 42.9483 18.6416 42.3982 19.7158 41.8433C21.8617 40.7348 25.0323 39.7069 29.0338 38.8327C37.0205 37.0877 48.1018 36 60.375 36C72.6482 36 83.7295 37.0877 91.7162 38.8327C95.7177 39.7069 98.8883 40.7348 101.034 41.8433C102.108 42.3982 102.876 42.9483 103.364 43.4686C103.846 43.984 104 44.4087 104 44.75Z" stroke="#C1631F" stroke-width="2"/>
<path d="M15.777 46.25C15.4067 50.7706 14.2311 56.4297 15.777 62.718C22.9617 91.9442 95.7678 93.1205 103.544 64.0096C105.348 57.2548 105.618 50.3831 103.544 46.25" stroke="#C1631F" stroke-width="2" stroke-linecap="round"/>
</svg>
