<svg width="120" height="120" viewBox="0 0 120 120" fill="none" xmlns="http://www.w3.org/2000/svg">
<path d="M63.228 58.0042C62.4895 50.4587 61.1667 34.9825 61.7831 33.4413" stroke="#C1631F" stroke-width="2"/>
<path d="M68.1402 47.3113C68.6026 51.3955 65.1221 55.2421 63.324 56.6548C57.6408 53.9576 57.3518 48.7563 56.7739 45.096C56.1959 41.4356 57.2234 35.3992 58.5077 31.514C59.7279 29.138 62.2066 24.6942 62.3607 25.9272C62.5534 27.4684 64.6725 30.6471 66.7917 34.5001C68.9108 38.3531 67.5623 42.2061 68.1402 47.3113Z" stroke="#C1631F" stroke-width="2"/>
<path d="M73.3418 48.8526L73.8234 33.7296" stroke="#C1631F" stroke-width="2"/>
<path d="M69.1036 41.4359C69.1036 45.2118 71.9933 47.4401 73.4382 48.0823C74.7867 49.7198 76.3153 41.7955 77.0022 39.1242C77.8692 35.7528 77.4839 31.8035 77.0022 29.01C76.0005 28.4706 75.1721 25.3817 74.5941 24.0011C74.2088 23.9689 72.918 24.6561 70.8374 27.6614C68.2366 31.4181 69.1036 36.716 69.1036 41.4359Z" stroke="#C1631F" stroke-width="2"/>
<path d="M63.2271 58.1963C70.8046 60.6686 86.0561 65.806 86.4414 66.5766" stroke="#C1631F" stroke-width="2"/>
<path d="M53.4019 69.274C59.8556 72.5169 73.2255 79.6771 75.075 82.3742M65.3462 58.6782C66.0204 57.5544 68.6983 55.4609 74.0154 56.0774C80.6618 56.848 88.7531 63.6871 90.2943 66.8658C92.2208 69.1006 92.4456 69.4024 92.3172 69.274H88.9458C84.2901 70.0446 73.8228 70.2372 69.1992 64.843C64.5756 59.4488 64.704 58.4855 65.3462 58.6782Z" stroke="#C1631F" stroke-width="2"/>
<path d="M43.1924 82.3738C50.0636 85.3598 63.7867 91.5632 63.7096 92.4879M54.6551 69.5625C55.0725 68.4066 56.7935 66.1718 60.3382 66.4801C64.7692 66.8654 74.9796 75.4384 75.6539 76.9796C76.3282 78.5208 79.1216 83.048 80.1812 85.8415C75.2686 84.6856 74.209 84.7819 73.2458 84.7819C72.2825 84.7819 57.8338 78.3281 55.9073 74.8604C54.3661 72.0863 54.4303 70.1725 54.6551 69.5625Z" stroke="#C1631F" stroke-width="2"/>
<path d="M43.8662 82.2776C45.6 80.9933 50.0695 78.8484 54.0766 80.5437C59.0855 82.6629 65.3467 89.7908 66.6952 92.2952C67.0805 94.607 67.241 94.7355 67.2732 94.5107L64.4797 95.2813C59.6314 95.2813 49.2604 94.0869 46.5633 89.3092C43.8662 84.5314 43.6414 82.6307 43.8662 82.2776Z" stroke="#C1631F" stroke-width="2"/>
<path d="M74.3047 49.9121C80.3338 51.3373 92.5891 54.5655 93.377 56.0769" stroke="#C1631F" stroke-width="2"/>
<path d="M35.6772 92.6804C45.2455 78.9381 66.7517 50.6827 76.2301 47.6003" stroke="#C1631F" stroke-width="2"/>
<path d="M76.6157 47.465C76.6157 44.5232 78.9599 37.5943 84.6107 33.413C91.6742 28.1863 93.9359 32.5561 95.8711 32.4705C97.4193 32.4019 97.9354 31.8707 97.9999 31.6136C97.6451 31.9278 96.9355 32.7275 96.9355 33.413C96.9355 34.2698 95.8711 34.8696 96.9355 36.6689C97.9999 38.4683 93.572 42.9987 92.8947 43.1701C92.2173 43.3414 84.8404 49.6071 76.6157 47.465Z" stroke="#C1631F" stroke-width="2"/>
<path d="M75.3404 50.1767C77.3159 48.897 82.2967 46.8298 86.416 48.7986C91.5652 51.2595 98.0746 56.1814 97.5888 57.1658C97.103 58.1501 90.1079 59.7251 88.8449 59.5282C87.5819 59.3314 76.8949 56.2798 74.5632 51.4564C72.6978 47.5976 73.7859 48.9955 74.5632 50.1767" stroke="#C1631F" stroke-width="2"/>
<path d="M76.6157 47.1192C79.9229 43.7799 87.2115 36.8124 89.9086 35.6565" stroke="#C1631F" stroke-width="2"/>
<path d="M43.48 82.1814L25.1782 66.1914" stroke="#C1631F" stroke-width="2"/>
<path d="M41.1687 73.5125C42.864 76.0555 42.453 79.1315 42.0356 80.3516C42.2925 80.6727 42.0741 81.6809 39.1459 83.145C35.1002 83.0487 31.8252 79.003 30.9582 78.7141C30.2647 78.4829 26.3025 72.6456 24.4081 69.7558L22 62.7241C23.7017 63.1415 27.8758 64.2461 30.9582 65.3249C34.8112 66.6734 39.0495 70.3338 41.1687 73.5125Z" stroke="#C1631F" stroke-width="2"/>
<path d="M52.6317 70.2369C50.0309 63.173 44.8486 48.7179 44.9257 47.4078" stroke="#C1631F" stroke-width="2"/>
<path d="M54.8473 59.7373C56.0032 64.5921 53.3382 66.9617 51.8612 67.5397C46.6597 69.8515 45.0222 63.0124 44.2516 62.1455C43.481 61.2785 42.7104 52.513 42.7104 50.3938C42.7103 48.1783 42.4535 42.463 42.7104 39.1238L50.1274 48.1783C51.2191 50.0085 53.6914 54.8826 54.8473 59.7373Z" stroke="#C1631F" stroke-width="2"/>
</svg>
