<svg width="127" height="117" viewBox="0 0 127 117" fill="none" xmlns="http://www.w3.org/2000/svg">
<path d="M68.3367 55.7135C67.1485 43.5727 65.0199 18.6712 66.0119 16.1914" stroke="#C1631F" stroke-width="2"/>
<path d="M76.2397 38.5084C76.9836 45.08 71.3834 51.2692 68.4903 53.5423C59.346 49.2024 58.8809 40.8335 57.951 34.944C57.021 29.0544 58.6743 19.3416 60.7408 13.0903C62.704 9.26726 66.6924 2.11713 66.9404 4.10098C67.2504 6.5808 70.6601 11.6954 74.0699 17.895C77.4796 24.0945 75.3098 30.294 76.2397 38.5084Z" stroke="#C1631F" stroke-width="2"/>
<path d="M84.6104 40.9875L85.3853 16.6543" stroke="#C1631F" stroke-width="2"/>
<path d="M77.7906 29.0546C77.7906 35.1302 82.4402 38.7156 84.7651 39.7488C86.9348 42.3835 89.3944 29.6333 90.4997 25.335C91.8946 19.9104 91.2746 13.5559 90.4997 9.06122C88.8878 8.19329 87.5549 3.22324 86.625 1.0017C86.005 0.950039 83.9281 2.05562 80.5804 6.89127C76.3957 12.9358 77.7906 21.4602 77.7906 29.0546Z" stroke="#C1631F" stroke-width="2"/>
<path d="M68.3359 56.0215C80.5284 59.9995 105.068 68.2656 105.688 69.5055" stroke="#C1631F" stroke-width="2"/>
<path d="M52.5264 73.8462C62.9106 79.0642 84.423 90.585 87.3988 94.9247M71.745 56.7974C72.8299 54.9892 77.1386 51.6208 85.6939 52.6127C96.3882 53.8527 109.407 64.8569 111.887 69.9715C114.987 73.5673 115.348 74.0529 115.142 73.8462H109.717C102.226 75.0861 85.384 75.3961 77.9445 66.7168C70.5051 58.0374 70.7117 56.4875 71.745 56.7974Z" stroke="#C1631F" stroke-width="2"/>
<path d="M36.0977 94.9244C47.1535 99.7291 69.2342 109.71 69.1102 111.198M54.5413 74.3108C55.2129 72.4509 57.982 68.8552 63.6856 69.3512C70.8151 69.9711 87.2439 83.7652 88.3288 86.2451C89.4137 88.7249 93.9084 96.0093 95.6133 100.504C87.7088 98.6441 86.004 98.7991 84.4541 98.7991C82.9042 98.7991 59.6559 88.4149 56.5561 82.8353C54.0763 78.3716 54.1796 75.2924 54.5413 74.3108Z" stroke="#C1631F" stroke-width="2"/>
<path d="M37.1832 94.7701C39.973 92.7036 47.1644 89.2525 53.6119 91.9803C61.6714 95.3901 71.7456 106.859 73.9155 110.889C74.5354 114.608 74.7937 114.815 74.8454 114.453L70.3507 115.693C62.5496 115.693 45.8625 113.771 41.5228 106.084C37.1832 98.3966 36.8215 95.3383 37.1832 94.7701Z" stroke="#C1631F" stroke-width="2"/>
<path d="M86.1592 42.6934C95.8602 44.9865 115.579 50.1808 116.847 52.6126" stroke="#C1631F" stroke-width="2"/>
<path d="M24.0068 111.507C39.4024 89.3956 74.0061 43.9323 89.257 38.9727" stroke="#C1631F" stroke-width="2"/>
<path d="M89.8779 38.7551C89.8779 34.0217 93.6497 22.8729 102.742 16.1451C114.107 7.73526 117.746 14.7664 120.86 14.6286C123.351 14.5183 124.182 13.6635 124.285 13.2499C123.715 13.7554 122.573 15.0422 122.573 16.1451C122.573 17.5237 120.86 18.4888 122.573 21.384C124.285 24.2792 117.161 31.5687 116.071 31.8444C114.981 32.1201 103.112 42.2017 89.8779 38.7551Z" stroke="#C1631F" stroke-width="2"/>
<path d="M87.8258 43.1185C91.0044 41.0595 99.0185 37.7333 105.647 40.9011C113.932 44.8608 124.405 52.7801 123.624 54.364C122.842 55.9479 111.587 58.4821 109.555 58.1653C107.523 57.8485 90.327 52.9385 86.5752 45.1775C83.5738 38.9687 85.3246 41.2179 86.5752 43.1185" stroke="#C1631F" stroke-width="2"/>
<path d="M89.8779 38.1995C95.1992 32.8266 106.927 21.6157 111.266 19.7559" stroke="#C1631F" stroke-width="2"/>
<path d="M36.5611 94.6148L7.11328 68.8867" stroke="#C1631F" stroke-width="2"/>
<path d="M32.8427 80.6673C35.5705 84.759 34.9092 89.7083 34.2376 91.6715C34.6509 92.1881 34.2996 93.8103 29.588 96.1662C23.0784 96.0112 17.8088 89.5017 16.4139 89.0367C15.298 88.6647 8.92282 79.2724 5.87471 74.6228L2 63.3086C4.73813 63.9802 11.4543 65.7574 16.4139 67.4933C22.6135 69.6631 29.433 75.5527 32.8427 80.6673Z" stroke="#C1631F" stroke-width="2"/>
<path d="M51.2862 75.3964C47.1015 64.0305 38.7631 40.7719 38.8871 38.6641" stroke="#C1631F" stroke-width="2"/>
<path d="M54.8519 58.5015C56.7118 66.313 52.4238 70.1257 50.0473 71.0556C41.6779 74.7753 39.0432 63.7711 37.8032 62.3763C36.5633 60.9814 35.3234 46.8774 35.3234 43.4676C35.3233 39.9029 34.9101 30.7069 35.3234 25.334L47.2575 39.9029C49.014 42.8477 52.9921 50.6901 54.8519 58.5015Z" stroke="#C1631F" stroke-width="2"/>
</svg>
