<svg width="104" height="107" viewBox="0 0 104 107" fill="none" xmlns="http://www.w3.org/2000/svg">
<path d="M75.9901 41.2754C74.8716 47.0319 73.7754 60.721 78.3391 69.4249" stroke="#C1631F" stroke-width="3"/>
<path d="M54.6808 42.4844C52.4436 51.81 48.4727 70.6685 50.4861 71.4974C53.0029 72.5336 53.5063 72.879 54.6808 72.1882C55.8552 71.4974 56.3586 67.6981 55.5197 67.8708" stroke="#C1631F" stroke-width="3"/>
<path d="M29.1768 12.4349C29.5683 11.1684 30.9888 8.67008 33.5392 8.80824C36.0895 8.94639 37.8457 9.21112 38.4049 9.32622" stroke="#C1631F" stroke-width="3"/>
<path d="M74.4799 12.4336C76.1577 12.7214 79.0101 13.9879 79.0101 17.4418C79.0101 21.5937 79.1779 24.177 73.6409 27.1128C69.2114 29.4615 65.1957 28.5519 63.7416 27.8036M27.5 36.6111C29.7371 39.3743 33.6409 45.9022 31.3591 49.9088" stroke="#C1631F" stroke-width="3"/>
<path d="M30.1846 59.4082C30.2405 64.8194 29.245 76.1943 24.8154 78.4048" stroke="#C1631F" stroke-width="3"/>
<path d="M38.0703 42.6562C39.916 46.1102 46.426 51.4983 38.9092 75.814M63.5737 48.1825C62.3992 51.7516 61.5938 62.9654 67.7683 79.2679" stroke="#C1631F" stroke-width="3"/>
<path d="M53.5061 17.9594C52.7231 19.341 50.1504 21.2752 46.1235 17.9594C42.0967 14.6436 42.9915 12.8936 43.9423 12.4331C47.0744 10.9364 54.7143 8.39201 60.2176 10.1881C65.721 11.9841 66.6494 16.1173 66.4257 17.9594C66.6493 20.5499 64.3784 25.9382 53.5061 26.7671C42.6337 27.5961 37.6785 24.8099 36.5599 23.3132L31.5264 17.9594" stroke="#C1631F" stroke-width="3"/>
<path d="M14.911 20.0332C17.7063 29.4512 22.1564 50.6276 17.5945 59.9898C11.8921 71.6926 2.5 90.4171 2.5 90.4171C2.5 90.4171 10.3827 94.7638 11.5567 89.2468C12.4959 84.8332 15.9732 83.8969 17.5945 83.3954C19.7189 83.061 23.4981 83.1948 21.6197 86.4047C19.2717 90.4171 13.4016 97.9403 11.5567 99.4449C9.71181 100.95 12.2276 104.795 14.911 102.12C17.5945 99.4449 24.1354 98.4418 26.6512 94.4295C29.1669 90.4171 28.6638 85.0672 33.6953 81.8908C37.7205 79.3496 39.9567 81.835 40.5717 83.3954C40.1803 85.736 40.1021 90.4171 42.9197 90.4171C46.4418 90.4171 49.1252 89.414 49.1252 86.4047C49.1252 83.9973 50.8024 83.3954 51.641 83.3954C53.0945 83.061 56.0016 83.1948 56.0016 86.4047C56.0016 90.4171 54.4921 95.5997 58.0142 102.12C60.8318 107.336 63.3252 104.293 64.2197 102.12C65.2819 99.5564 67.2721 93.627 66.7355 90.4171C66.0646 86.4047 63.7166 85.0672 66.7355 81.8908C69.7544 78.7143 69.9221 84.5657 71.0961 86.4047C72.0353 87.8759 77.1898 92.3675 79.6496 94.4295C80.6 94.4295 82.4337 93.627 82.1654 90.4171C81.897 87.2072 80.3764 84.3985 79.6496 83.3954C79.6496 83.3954 83.4937 90.8658 87.3646 94.4295C92.2279 98.9067 103.255 108.671 102.459 102.12C102.022 98.5245 97.2599 94.4295 97.2599 94.4295C93.8497 90.9186 87.5323 82.4257 89.5449 76.5409C87.4764 62.7205 84.1444 33.2406 87.3646 25.8846" stroke="#C1631F" stroke-width="3"/>
<path d="M88.6401 21.1852C88.5295 22.8725 87.6044 24.5577 85.7447 26.164C83.8793 27.7753 81.1612 29.2235 77.7223 30.3915C70.8511 32.7253 61.3924 33.8425 50.9949 33.12C40.5975 32.3975 31.3706 29.9819 24.8664 26.7187C21.6112 25.0855 19.1069 23.2745 17.4689 21.4197C15.8359 19.5706 15.1392 17.7728 15.2499 16.0855C15.3606 14.3981 16.2857 12.7129 18.1453 11.1066C20.0107 9.49527 22.7288 8.04712 26.1677 6.87911C33.039 4.5453 42.4976 3.42813 52.8951 4.15062C63.2925 4.87311 72.5195 7.28871 79.0236 10.5519C82.2788 12.1851 84.7831 13.9961 86.4212 15.8509C88.0542 17.7 88.7508 19.4978 88.6401 21.1852Z" stroke="#C1631F" stroke-width="3"/>
</svg>
