<svg width="120" height="120" viewBox="0 0 120 120" fill="none" xmlns="http://www.w3.org/2000/svg">
<path d="M78.5274 50.4327C77.6214 55.0955 76.7335 66.1837 80.4301 73.2339" stroke="#C1631F" stroke-width="2"/>
<path d="M61.2666 51.4115C59.4545 58.9652 56.2381 74.2406 57.8689 74.9121C59.9075 75.7514 60.3153 76.0311 61.2666 75.4716C62.2179 74.9121 62.6256 71.8346 61.9461 71.9745" stroke="#C1631F" stroke-width="2"/>
<path d="M40.6084 27.0723C40.9255 26.0465 42.0762 24.0228 44.142 24.1347C46.2077 24.2466 47.6302 24.461 48.0832 24.5543" stroke="#C1631F" stroke-width="2"/>
<path d="M77.3032 27.0712C78.6623 27.3043 80.9727 28.3301 80.9727 31.1278C80.9727 34.4909 81.1086 36.5833 76.6237 38.9613C73.0357 40.8638 69.7831 40.127 68.6052 39.5209M39.2495 46.655C41.0616 48.8931 44.2237 54.1807 42.3754 57.4261" stroke="#C1631F" stroke-width="2"/>
<path d="M41.4247 65.1205C41.47 69.5035 40.6636 78.7172 37.0757 80.5078" stroke="#C1631F" stroke-width="2"/>
<path d="M47.812 51.5513C49.307 54.349 54.5801 58.7133 48.4915 78.409M68.4697 56.0276C67.5184 58.9185 66.866 68.0017 71.8674 81.2067" stroke="#C1631F" stroke-width="2"/>
<path d="M60.3153 31.5471C59.6811 32.6662 57.5972 34.2329 54.3354 31.5471C51.0737 28.8613 51.7985 27.4438 52.5686 27.0708C55.1056 25.8585 61.2939 23.7975 65.7517 25.2523C70.2094 26.7071 70.9614 30.055 70.7802 31.5471C70.9613 33.6454 69.1219 38.0099 60.3153 38.6814C51.5087 39.3528 47.4949 37.096 46.5889 35.8837L42.5117 31.5471" stroke="#C1631F" stroke-width="2"/>
<path d="M29.0529 33.2267C31.3171 40.8552 34.9217 58.0082 31.2265 65.5916C26.6076 75.0708 19 90.2376 19 90.2376C19 90.2376 25.385 93.7585 26.3359 89.2897C27.0967 85.7147 29.9133 84.9563 31.2265 84.5501C32.9473 84.2792 36.0085 84.3876 34.4869 86.9876C32.585 90.2376 27.8303 96.3314 26.3359 97.5502C24.8416 98.7689 26.8793 101.884 29.0529 99.7169C31.2265 97.5502 36.5247 96.7377 38.5625 93.4876C40.6002 90.2376 40.1927 85.9042 44.2682 83.3313C47.5286 81.273 49.3399 83.2862 49.8381 84.5501C49.5211 86.4459 49.4577 90.2376 51.74 90.2376C54.5928 90.2376 56.7664 89.4251 56.7664 86.9876C56.7664 85.0376 58.1249 84.5501 58.8042 84.5501C59.9815 84.2792 62.3363 84.3876 62.3363 86.9876C62.3363 90.2376 61.1136 94.4356 63.9665 99.7169C66.2488 103.942 68.2684 101.477 68.993 99.7169C69.8533 97.6405 71.4654 92.8376 71.0307 90.2376C70.4873 86.9876 68.5854 85.9042 71.0307 83.3313C73.476 80.7584 73.6119 85.498 74.5628 86.9876C75.3236 88.1793 79.4987 91.8175 81.4912 93.4876C82.261 93.4876 83.7463 92.8376 83.529 90.2376C83.3116 87.6376 82.0799 85.3626 81.4912 84.5501C81.4912 84.5501 84.6049 90.6011 87.7403 93.4876C91.6796 97.1142 100.612 105.023 99.9669 99.7169C99.6131 96.8046 95.7555 93.4876 95.7555 93.4876C92.9932 90.6439 87.8762 83.7646 89.5064 78.9979C87.8309 67.8034 85.132 43.9247 87.7403 37.9663" stroke="#C1631F" stroke-width="2"/>
<path d="M88.9884 34.1749C88.8939 35.6161 88.1042 37.0302 86.5695 38.3558C85.0309 39.6849 82.8018 40.8693 80.0003 41.8208C74.4016 43.7223 66.7105 44.6284 58.2673 44.0417C49.824 43.455 42.321 41.4931 37.0214 38.8343C34.3696 37.5038 32.3154 36.0218 30.9644 34.492C29.6167 32.966 29.0188 31.4555 29.1134 30.0143C29.2079 28.5731 29.9976 27.159 31.5323 25.8333C33.0709 24.5043 35.3 23.3199 38.1015 22.3684C43.7001 20.4668 51.3913 19.5608 59.8345 20.1475C68.2778 20.7342 75.7808 22.696 81.0803 25.3549C83.7322 26.6854 85.7863 28.1674 87.1374 29.6972C88.4851 31.2232 89.0829 32.7337 88.9884 34.1749Z" stroke="#C1631F" stroke-width="2"/>
</svg>
