<svg width="120" height="120" viewBox="0 0 120 120" fill="none" xmlns="http://www.w3.org/2000/svg">
<path d="M17.0327 56.6236H20.6525L21.8739 54.7399L24.8719 55.6818L26.5042 53.9218L29.5022 57.3086L31.6785 55.6152L34.9431 59.0972L36.5198 57.3086L39.5844 60.4576L41.2167 59.0972L42.7157 61.6183L44.0815 60.4481L47.7568 64.8815C48.6229 66.2609 49.1781 67.4787 49.5334 68.3825C50.5106 70.8655 50.7438 72.911 50.8992 74.338C51.0547 75.746 51.1324 76.45 51.0325 77.2587C50.7326 79.894 49.2447 81.7586 48.4453 82.748C46.2356 85.4689 43.3819 86.877 41.7719 87.5334L34.2768 89.5218L34.9542 87.5334L29.369 88.1232L30.6903 86.3632H25.9601L26.915 84.7269L22.0071 83.7945L24.5943 82.6244L19.1424 80.636L21.8628 79.4658L17.7766 76.1932H20.3638L17.9099 73.3962L20.497 72.4638L17.0882 69.429H19.6754L16 64.8719L18.0431 63.9396L16 62.3033L17.499 61.0189L16 59.0781H17.6323L17.0104 56.6046C21.8295 60.0961 26.6374 63.5971 31.4565 67.0886L33.0665 69.8381L49.3225 78.4384L57.0174 79.4658" stroke="#C1631F" stroke-width="2" stroke-miterlimit="10"/>
<path d="M34.6992 16.7152L37.8375 18.9077C37.7485 18.5596 37.9154 18.1643 37.8375 17.8068L43.5688 20.5169C43.4687 20.1122 43.6801 19.6511 43.5688 19.2465L49.8454 23.9798L50.8025 22.1354L52.4162 27.678L54.3526 26.0595V31.2539L56.7564 30.5575L55.5879 35.8649C56.2556 35.7802 56.979 35.9684 57.6356 35.8649L55.1761 42.4426H57.6356C55.0537 48.5121 50.6022 53.2172 42.8121 53.2172C41.6992 53.2172 41.6992 55.0993 40.5863 55.0993C37.2477 56.0403 32.7962 53.2172 29.6467 53.9418C30.2366 53.6407 30.7151 53.1796 31.2827 52.8502L26.3637 49.9425L27.8661 48.418L23.6372 46.4795C24.2715 46.3196 24.7835 45.8491 25.4178 45.6703L22.1459 41.511H24.6054L20.6436 36.7777C23.8153 36.4765 22.1459 32.1479 22.0124 30.1999C22.7914 30.6328 23.9043 29.6918 23.9043 29.6918V24.0457H26.13C28.3558 21.2226 26.13 18.3996 29.7914 16M29.7914 16C28.9679 17.2045 30.0362 18.9454 29.7914 16ZM29.7914 16C32.8073 33.4559 39.4846 50.3942 53.952 65.4504C57.2906 69.2145 52.8391 74.8606 56.1777 78.6247C60.6292 84.2708 68.4194 88.0349 71.758 94.622C73.9837 101.209 73.3442 97.2353 73.5 104.5" stroke="#C1631F" stroke-width="2" stroke-miterlimit="10"/>
<path d="M104.445 55.8255L103.303 58.7215L105 60.2867L103.015 62.3954L104.445 64.2512L99.7554 65.6008L100.942 67.8689L96.0521 69.4059L97.5379 71.2242L93.0917 72.6956L94.0785 74.4295L90.8077 74.8419L91.6725 76.2946L85.6076 77.8598C83.8114 78.1222 82.2924 78.1878 81.1726 78.1878C78.1235 78.1878 75.784 77.7473 74.1541 77.4286C72.5464 77.11 71.737 76.9506 70.8833 76.632C68.0671 75.5729 66.4705 73.8015 65.6278 72.8549C63.3105 70.2307 62.6563 67.5127 62.4346 66.0225L62.6009 59.4057L64.5856 60.5678L65.6943 55.9098L67.2244 57.5125L68.7101 53.7261L70.2181 55.0007L72.7904 51.3642L73.2671 53.801L77.1811 50.0521L77.6135 52.6014L82.5142 50.3427L81.6937 52.4139L85.5633 51.3174L85.785 53.6792L90.209 51.8985L89.3885 53.9697L95.5864 52.4421L95.9745 54.3728L98.4249 53.2481L99.3784 54.8507L101.995 54.2509L101.485 55.563L104.423 55.8348C99.0458 58.609 93.6572 61.3739 88.2797 64.1481L84.7317 64.5792L70.1072 74.9262L66.537 80.7745L64.1088 86.426" stroke="#C1631F" stroke-width="2" stroke-miterlimit="10"/>
<path d="M37.6697 19.0957L33.3702 31.4783L26.061 24.2638" stroke="#C1631F" stroke-width="2" stroke-miterlimit="10"/>
<path d="M43.861 20.6434L36.1131 37.6695L24.5132 29.9634" stroke="#C1631F" stroke-width="2" stroke-miterlimit="10"/>
<path d="M50.0518 24.5131L38.7867 43.8609L22.9648 35.14" stroke="#C1631F" stroke-width="2" stroke-miterlimit="10"/>
<path d="M41.5391 50.0523L54.6956 31.4784" stroke="#C1631F" stroke-width="2" stroke-miterlimit="10"/>
<path d="M55.4693 43.087L43.2062 53.1479L28.3823 48.6666" stroke="#C1631F" stroke-width="2" stroke-miterlimit="10"/>
<path d="M41.5388 48.5044L25.2866 41.5392" stroke="#C1631F" stroke-width="2" stroke-miterlimit="10"/>
<path d="M24.7353 55.4696L26.8348 63.9533L18.3218 63.9826" stroke="#C1631F" stroke-width="2" stroke-miterlimit="10"/>
<path d="M34.5735 59.3391V70.9478L19.8691 69.5566" stroke="#C1631F" stroke-width="2" stroke-miterlimit="10"/>
<path d="M39.1567 60.113L39.9914 73.8249L20.6436 76.3652" stroke="#C1631F" stroke-width="2" stroke-miterlimit="10"/>
<path d="M42.2927 61.661L44.6349 76.1716L24.5132 82.5567" stroke="#C1631F" stroke-width="2" stroke-miterlimit="10"/>
<path d="M96.0149 53.9218L94.9395 60.6865L102.679 62.4348" stroke="#C1631F" stroke-width="2" stroke-miterlimit="10"/>
<path d="M89.8164 53.9218L88.7476 64.0712L99.5823 65.5304" stroke="#C1631F" stroke-width="2" stroke-miterlimit="10"/>
<path d="M81.6508 52.374L81.0088 67.1462L96.487 69.4001" stroke="#C1631F" stroke-width="2" stroke-miterlimit="10"/>
<path d="M73.2695 53.1479L77.1087 69.8369L91.0695 74.8175" stroke="#C1631F" stroke-width="2" stroke-miterlimit="10"/>
<path d="M67.0786 57.0175L72.3385 72.8928L81.009 77.9131" stroke="#C1631F" stroke-width="2" stroke-miterlimit="10"/>
<path d="M36.8954 17.5478L30.7041 16" stroke="#C1631F" stroke-width="2" stroke-miterlimit="10"/>
</svg>
