<svg width="121" height="157" viewBox="0 0 121 157" fill="none" xmlns="http://www.w3.org/2000/svg">
<path d="M4.33433 54.4912H9.01164L10.5899 52.0572L14.4637 53.2742L16.5728 51L20.4467 55.3763L23.2588 53.1881L27.477 57.6873L29.5143 55.3763L33.4743 59.4452L35.5834 57.6873L37.5203 60.9449L39.2851 59.4329L44.0341 65.1614C45.1532 66.9439 45.8706 68.5174 46.3297 69.6852C47.5923 72.8936 47.8936 75.5366 48.0945 77.3805C48.2953 79.1999 48.3958 80.1096 48.2666 81.1545C47.8793 84.5596 45.9567 86.969 44.9237 88.2475C42.0685 91.7632 38.3812 93.5826 36.3008 94.4308L26.6161 97L27.4913 94.4308L20.2745 95.1929L21.9819 92.9188H15.8698L17.1037 90.8044L10.762 89.5997L14.105 88.0877L7.06037 85.5184L10.5755 84.0064L5.29561 79.7777H8.6386L5.46779 76.1635L8.81077 74.9588L4.40606 71.0374H7.74905L3 65.1491L5.63996 63.9444L3 61.83L4.93692 60.1705L3 57.6627H5.1091L4.30563 54.4666C10.5325 58.9781 16.745 63.5019 22.9718 68.0134L25.0522 71.566L46.0571 82.6788L56 84.0064" stroke="#C1631F" stroke-width="2" stroke-miterlimit="10"/>
<path d="M29 4L21 2" stroke="#C1631F" stroke-miterlimit="10"/>
<path d="M27.1618 2.9241L31.2169 5.7572C31.1019 5.30731 31.3176 4.79662 31.2169 4.33457L38.6225 7.83642C38.4931 7.31358 38.7663 6.71777 38.6225 6.19493L46.7328 12.311L47.9694 9.9278L50.0545 17.0896L52.5566 14.9982V21.7101L55.6627 20.8103L54.1528 27.6681C55.0156 27.5587 55.9503 27.8018 56.7987 27.6681L53.6207 36.1674H56.7987C53.4626 44.0101 47.7106 50.0897 37.6447 50.0897C36.2067 50.0897 36.2067 52.5215 34.7687 52.5215C30.4548 53.7374 24.7028 50.0897 20.6333 51.0259C21.3954 50.6368 22.0138 50.041 22.7472 49.6155L16.3913 45.8583L18.3325 43.8885L12.8682 41.3837C13.6878 41.177 14.3493 40.569 15.169 40.338L10.9413 34.9636H14.1192L9 28.8475C13.0983 28.4584 10.9413 22.8652 10.7687 20.3482C11.7753 20.9076 13.2133 19.6917 13.2133 19.6917V12.3961H16.0893C18.9652 8.74836 16.0893 5.1006 20.8203 2M20.8203 2C19.7561 3.55638 21.1366 5.80583 20.8203 2ZM20.8203 2C24.7172 24.5553 33.3451 46.4419 52.0389 65.8966C56.3529 70.7603 50.601 78.0559 54.9149 82.9195C60.6669 90.2151 70.7328 95.0788 75.0467 103.59C77.9227 112.102 80.7987 120.613 81 130" stroke="#C1631F" stroke-width="2" stroke-miterlimit="10"/>
<path d="M117.284 53.4599L115.808 57.202L118 59.2244L115.436 61.9492L117.284 64.3471L111.223 66.091L112.756 69.0216L106.438 71.0077L108.358 73.3571L102.613 75.2584L103.888 77.4988L99.6619 78.0317L100.779 79.9088L92.9427 81.9312C90.6218 82.2703 88.659 82.3551 87.212 82.3551C83.2722 82.3551 80.2493 81.7859 78.1433 81.3741C76.0659 80.9624 75.0201 80.7565 73.9169 80.3448C70.2779 78.9763 68.2149 76.6875 67.1261 75.4643C64.1318 72.0734 63.2865 68.5615 63 66.6359L63.2149 58.0861L65.7794 59.5877L67.212 53.5689L69.1891 55.6398L71.1089 50.7472L73.0573 52.3942L76.3811 47.6954L76.9971 50.8441L82.0544 46L82.6132 49.294L88.9456 46.3754L87.8854 49.0518L92.8854 47.6349L93.1719 50.6867L98.8883 48.3857L97.8281 51.0621L105.837 49.0881L106.338 51.5828L109.504 50.1296L110.736 52.2005L114.117 51.4254L113.458 53.1208L117.255 53.472C110.307 57.0567 103.344 60.6292 96.3954 64.2139L91.8109 64.7709L72.914 78.1407L68.3009 85.6975L65.1633 93" stroke="#C1631F" stroke-width="2" stroke-miterlimit="10"/>
<path d="M31 6L25.4444 22L16 12.6778" stroke="#C1631F" stroke-width="2" stroke-miterlimit="10"/>
<path d="M39 8L28.9887 30L14 20.0426" stroke="#C1631F" stroke-width="2" stroke-miterlimit="10"/>
<path d="M47 13L32.444 38L12 26.7314" stroke="#C1631F" stroke-width="2" stroke-miterlimit="10"/>
<path d="M36 46L53 22" stroke="#C1631F" stroke-width="2" stroke-miterlimit="10"/>
<path d="M54 37L38.1544 50L19 44.2096" stroke="#C1631F" stroke-width="2" stroke-miterlimit="10"/>
<path d="M36 44L15 35" stroke="#C1631F" stroke-width="2" stroke-miterlimit="10"/>
<path d="M14.2871 53L17 63.9621L6 64" stroke="#C1631F" stroke-width="2" stroke-miterlimit="10"/>
<path d="M27 58V73L8 71.2024" stroke="#C1631F" stroke-width="2" stroke-miterlimit="10"/>
<path d="M32.9215 59L34 76.7176L9 80" stroke="#C1631F" stroke-width="2" stroke-miterlimit="10"/>
<path d="M36.9735 61L40 79.7497L14 88" stroke="#C1631F" stroke-width="2" stroke-miterlimit="10"/>
<path d="M106.39 51L105 59.741L115 62" stroke="#C1631F" stroke-width="2" stroke-miterlimit="10"/>
<path d="M98.381 51L97 64.1144L111 66" stroke="#C1631F" stroke-width="2" stroke-miterlimit="10"/>
<path d="M87.8296 49L87 68.0877L107 71" stroke="#C1631F" stroke-width="2" stroke-miterlimit="10"/>
<path d="M77 50L81.9608 71.5644L100 78" stroke="#C1631F" stroke-width="2" stroke-miterlimit="10"/>
<path d="M69 55L75.7965 75.5131L87 82" stroke="#C1631F" stroke-width="2" stroke-miterlimit="10"/>
</svg>
