<svg width="298" height="385" viewBox="0 0 298 385" fill="none" xmlns="http://www.w3.org/2000/svg">
<rect width="298" height="385" fill="#E18658"/>
<path d="M253 343.196L235.503 330H225.003L238.997 340.554H211V345.837H238.997L225.003 356.391H235.503L253 343.196Z" fill="#E2D6C6"/>
<path d="M57.2588 344.09V352H54.4609V331.36H57.2588V341.702L67.2051 331.36H70.501L61.7119 340.325L71.6729 352H68.2012L59.9541 342.039L57.2588 344.09ZM93.9092 341.585C93.9092 343.792 93.4893 345.696 92.6494 347.298C91.8193 348.899 90.6377 350.135 89.1045 351.004C87.5713 351.863 85.7549 352.293 83.6553 352.293C81.5459 352.293 79.7246 351.863 78.1914 351.004C76.668 350.145 75.4912 348.914 74.6611 347.312C73.8408 345.711 73.4307 343.802 73.4307 341.585C73.4307 339.378 73.8359 337.493 74.6465 335.931C75.4668 334.358 76.6387 333.152 78.1621 332.312C79.6953 331.473 81.5361 331.053 83.6846 331.053C85.7939 331.053 87.6104 331.468 89.1338 332.298C90.667 333.128 91.8438 334.329 92.6641 335.901C93.4941 337.464 93.9092 339.358 93.9092 341.585ZM91.0527 341.585C91.0527 339.017 90.4082 337 89.1191 335.535C87.8398 334.07 86.0283 333.338 83.6846 333.338C81.3213 333.338 79.4951 334.061 78.2061 335.506C76.917 336.951 76.2725 338.978 76.2725 341.585C76.2725 343.304 76.5654 344.798 77.1514 346.067C77.7373 347.327 78.582 348.304 79.6855 348.997C80.7891 349.681 82.1123 350.022 83.6553 350.022C86.0381 350.022 87.8643 349.29 89.1338 347.825C90.4131 346.351 91.0527 344.271 91.0527 341.585ZM100.311 338.289V352H97.8203V331.36H101.072L112.234 349.056C112.117 347.132 112.059 345.745 112.059 344.896V331.36H114.578V352H111.209L100.164 334.422C100.184 335.066 100.213 335.711 100.252 336.355C100.291 337 100.311 337.645 100.311 338.289ZM127.586 333.646V352H124.803V333.646H117.713V331.36H134.676V333.646H127.586ZM138.484 345.965L136.111 352H133.211L141.634 331.36H144.812L153.104 352H150.247L147.889 345.965H138.484ZM143.187 333.47C143.021 334.017 142.82 334.627 142.586 335.301C142.361 335.965 142.151 336.551 141.956 337.059L139.334 343.782H147.054L144.402 336.971C144.266 336.629 144.085 336.146 143.86 335.521C143.636 334.896 143.411 334.212 143.187 333.47ZM158.421 344.09V352H155.623V331.36H158.421V341.702L168.367 331.36H171.663L162.874 340.325L172.835 352H169.363L161.116 342.039L158.421 344.09ZM183.719 333.646V352H180.936V333.646H173.846V331.36H190.809V333.646H183.719Z" fill="#E2D6C6"/>
<g clip-path="url(#clip0_942_1525)">
<path d="M191.465 178.129L114.102 207.872L133.735 258.939L211.099 229.196L191.465 178.129Z" stroke="#E2D6C6" stroke-width="3" stroke-miterlimit="10"/>
<path d="M114.102 207.872L162.6 218.534L191.465 178.129" stroke="#E2D6C6" stroke-width="3" stroke-miterlimit="10"/>
</g>
<path d="M103.244 194.086C102.747 195.841 102.095 197.605 101.289 199.379C100.488 201.131 99.5502 202.673 98.4758 204.007C97.3792 205.335 96.1505 206.338 94.7899 207.015C93.4293 207.693 91.9297 207.833 90.2912 207.435C89.4941 207.241 88.8041 206.944 88.2211 206.545C87.6382 206.145 87.1708 205.656 86.8188 205.078C86.5674 204.665 86.371 204.219 86.2297 203.739C86.0938 203.237 86.0129 202.701 85.9871 202.132C85.4983 202.6 84.9759 203.012 84.4201 203.37C83.8864 203.732 83.3329 204.032 82.7597 204.267C82.065 204.521 81.3475 204.675 80.6073 204.729C79.8671 204.784 79.1206 204.72 78.3678 204.537C77.2828 204.273 76.4117 203.756 75.7546 202.987C75.0974 202.218 74.6517 201.253 74.4175 200.094C74.1611 198.93 74.1082 197.604 74.2587 196.116C74.4314 194.634 74.794 193.045 75.3466 191.351C76.1432 188.941 77.0909 186.827 78.1898 185.007C79.2941 183.165 80.514 181.667 81.8494 180.514C83.1573 179.378 84.5532 178.604 86.0372 178.191C87.5265 177.755 89.0572 177.729 90.6293 178.111C92.1128 178.471 93.269 179.069 94.098 179.903C94.9323 180.716 95.5404 181.591 95.9224 182.528L90.3928 198.912C90.1057 199.803 89.9476 200.551 89.9184 201.153C89.8945 201.734 89.9557 202.206 90.1018 202.57C90.2203 202.95 90.4211 203.233 90.7042 203.419C90.9873 203.606 91.306 203.742 91.6602 203.828C92.4795 204.027 93.2744 203.892 94.0451 203.422C94.8433 202.936 95.5845 202.202 96.2689 201.219C96.9479 200.259 97.573 199.086 98.1442 197.7C98.7154 196.315 99.2085 194.817 99.6235 193.206C100.395 190.415 100.776 187.835 100.766 185.464C100.756 183.093 100.375 180.995 99.6226 179.171C98.8479 177.341 97.7298 175.815 96.2682 174.592C94.8067 173.369 93.0131 172.499 90.8875 171.983C88.7397 171.461 86.6618 171.472 84.6537 172.015C82.673 172.542 80.77 173.522 78.9446 174.954C76.9983 176.498 75.2872 178.521 73.8115 181.023C72.3411 183.503 71.1715 186.338 70.3026 189.527C69.46 192.511 69.0192 195.241 68.9802 197.718C68.9412 200.194 69.312 202.383 70.0927 204.284C70.868 206.208 72.0586 207.822 73.6643 209.127C75.2976 210.415 77.3542 211.36 79.8341 211.963C80.4984 212.125 81.1845 212.244 81.8924 212.323C82.6057 212.379 83.3187 212.388 84.0314 212.35C84.7387 212.334 85.4235 212.266 86.0859 212.146C86.7483 212.026 87.3635 211.858 87.9313 211.645L88.0497 215.789C87.3939 216.075 86.6741 216.287 85.8902 216.425C85.1063 216.563 84.3027 216.637 83.4793 216.648C82.6505 216.681 81.8268 216.645 81.0082 216.54C80.1841 216.457 79.4179 216.329 78.7093 216.157C75.4545 215.366 72.7907 214.121 70.7181 212.421C68.6731 210.704 67.1701 208.639 66.2092 206.225C65.2261 203.805 64.7469 201.097 64.7714 198.102C64.8235 195.089 65.3166 191.903 66.2506 188.542C67.2445 185.032 68.6492 181.809 70.4648 178.873C72.3025 175.943 74.3896 173.531 76.726 171.636C78.9469 169.831 81.351 168.575 83.9384 167.867C86.5478 167.164 89.2365 167.149 92.0042 167.822C94.7055 168.479 96.9788 169.594 98.8239 171.168C100.675 172.72 102.083 174.645 103.048 176.943C103.992 179.236 104.484 181.841 104.525 184.759C104.572 187.655 104.145 190.764 103.244 194.086ZM79.4318 192.343C79.113 193.462 78.8876 194.486 78.7556 195.415C78.6289 196.322 78.6147 197.104 78.7129 197.762C78.8058 198.441 79.0001 198.992 79.2958 199.416C79.619 199.823 80.0463 200.091 80.5777 200.22C81.242 200.381 81.8999 200.424 82.5516 200.348C83.2254 200.277 83.8761 200.06 84.5037 199.697C84.8891 199.462 85.2741 199.18 85.6588 198.852C86.0489 198.501 86.4303 198.089 86.803 197.617L86.9169 197.293L91.6903 183.152C91.418 182.922 91.1239 182.733 90.8079 182.586C90.514 182.444 90.201 182.333 89.8689 182.252C88.6954 181.967 87.5958 182.005 86.5702 182.365C85.5722 182.709 84.6505 183.317 83.8051 184.191C82.9543 185.086 82.1605 186.23 81.4235 187.622C80.7141 188.997 80.0502 190.571 79.4318 192.343Z" fill="#E2D6C6"/>
<path d="M180.437 89.5798C185.762 109.585 162.18 156.028 140.969 167.114C138.563 168.109 138.642 168.93 135.971 169.18C134.064 170.859 117.62 163.068 117.533 159.189C117.446 155.311 126.654 144.029 129.658 139.762C132.061 136.348 135.654 139.061 136.835 139.819C138.015 140.577 143.797 145.125 145.097 145.121C146.396 145.118 151.625 140.464 158.502 132.46C164.004 126.056 166.21 109.165 164.652 107.496C163.095 105.826 157.783 107.133 155.991 107.519C154.2 107.904 149.244 106.928 148.487 104.572C147.729 102.216 154.975 84.0949 154.975 84.0949C157.86 80.5885 166.992 76.7765 180.437 89.5798Z" stroke="#E2D6C6" stroke-width="3"/>
<defs>
<clipPath id="clip0_942_1525">
<rect x="113" y="207.346" width="84.563" height="56.4844" rx="10" transform="rotate(-21.0297 113 207.346)" fill="white"/>
</clipPath>
</defs>
</svg>
