<svg width="298" height="385" viewBox="0 0 298 385" fill="none" xmlns="http://www.w3.org/2000/svg">
<rect width="298" height="385" fill="#E2D6C6"/>
<path d="M243 347.196L225.503 334H215.003L228.997 344.554H201V349.837H228.997L215.003 360.391H225.503L243 347.196Z" fill="#C1631F"/>
<path d="M57.9512 343.23V357H55.4609V336.36H59.1377L64.6309 350.672C64.8262 351.248 65.0117 351.868 65.1875 352.532C65.373 353.187 65.4951 353.66 65.5537 353.953C65.6123 353.689 65.71 353.328 65.8467 352.869C65.9834 352.4 66.1201 351.951 66.2568 351.521C66.3936 351.092 66.4912 350.809 66.5498 350.672L71.9404 336.36H75.5293V357H73.0098V343.23C73.0098 342.469 73.0195 341.722 73.0391 340.989C73.0684 340.257 73.1025 339.539 73.1416 338.836C72.8975 339.705 72.668 340.486 72.4531 341.18C72.248 341.863 72.0479 342.449 71.8525 342.938L66.5205 357H64.5576L59.1523 342.938L57.8486 338.836C57.8682 339.568 57.8877 340.301 57.9072 341.033C57.9365 341.766 57.9512 342.498 57.9512 343.23ZM99.8896 346.585C99.8896 348.733 99.4697 350.613 98.6299 352.225C97.7998 353.826 96.6182 355.071 95.085 355.96C93.5518 356.849 91.7354 357.293 89.6357 357.293C87.2236 357.293 85.2021 356.746 83.5713 355.652L81.8135 357.776H79.0303L81.96 354.246C80.2607 352.371 79.4111 349.817 79.4111 346.585C79.4111 344.378 79.8164 342.493 80.627 340.931C81.4473 339.358 82.6191 338.152 84.1426 337.312C85.6758 336.473 87.5166 336.053 89.665 336.053C92.0771 336.053 94.0986 336.59 95.7295 337.664L97.502 335.525H100.314L97.3701 339.07C98.21 339.998 98.8398 341.092 99.2598 342.352C99.6797 343.602 99.8896 345.013 99.8896 346.585ZM82.2529 346.585C82.2529 348.821 82.7461 350.667 83.7324 352.122L94.0889 339.627C92.8779 338.768 91.4033 338.338 89.665 338.338C87.3018 338.338 85.4756 339.061 84.1865 340.506C82.8975 341.951 82.2529 343.978 82.2529 346.585ZM97.0332 346.585C97.0332 344.407 96.5547 342.61 95.5977 341.194L85.2119 353.689C86.3936 354.578 87.8682 355.022 89.6357 355.022C92.0186 355.022 93.8447 354.29 95.1143 352.825C96.3936 351.351 97.0332 349.271 97.0332 346.585ZM121.569 346.468C121.569 348.646 121.145 350.521 120.295 352.093C119.455 353.665 118.278 354.876 116.765 355.726C115.261 356.575 113.513 357 111.521 357H103.801V336.36H110.627C114.123 336.36 116.818 337.239 118.713 338.997C120.617 340.745 121.569 343.235 121.569 346.468ZM118.757 346.468C118.757 343.909 118.054 341.961 116.647 340.623C115.251 339.275 113.225 338.602 110.568 338.602H106.599V354.759H111.198C112.731 354.759 114.06 354.422 115.183 353.748C116.315 353.074 117.194 352.117 117.819 350.877C118.444 349.637 118.757 348.167 118.757 346.468ZM136.32 343.23V357H133.83V336.36H137.507L143 350.672C143.195 351.248 143.381 351.868 143.557 352.532C143.742 353.187 143.864 353.66 143.923 353.953C143.981 353.689 144.079 353.328 144.216 352.869C144.353 352.4 144.489 351.951 144.626 351.521C144.763 351.092 144.86 350.809 144.919 350.672L150.31 336.36H153.898V357H151.379V343.23C151.379 342.469 151.389 341.722 151.408 340.989C151.438 340.257 151.472 339.539 151.511 338.836C151.267 339.705 151.037 340.486 150.822 341.18C150.617 341.863 150.417 342.449 150.222 342.938L144.89 357H142.927L137.521 342.938L136.218 338.836C136.237 339.568 136.257 340.301 136.276 341.033C136.306 341.766 136.32 342.498 136.32 343.23ZM161.926 336.36V357H159.128V336.36H161.926ZM176.618 355.022C177.966 355.022 179.221 354.817 180.383 354.407C181.555 353.997 182.502 353.44 183.225 352.737V349.017H177.058V346.673H185.803V353.792C184.709 354.905 183.366 355.77 181.774 356.385C180.192 356.99 178.474 357.293 176.618 357.293C174.47 357.293 172.619 356.858 171.066 355.989C169.514 355.12 168.317 353.885 167.478 352.283C166.638 350.672 166.218 348.772 166.218 346.585C166.218 343.235 167.116 340.643 168.913 338.807C170.71 336.971 173.234 336.053 176.486 336.053C178.771 336.053 180.627 336.438 182.053 337.21C183.479 337.981 184.577 339.217 185.349 340.916L182.683 341.707C182.097 340.535 181.286 339.681 180.251 339.144C179.226 338.606 177.946 338.338 176.413 338.338C174.03 338.338 172.209 339.061 170.949 340.506C169.689 341.941 169.06 343.968 169.06 346.585C169.06 349.192 169.729 351.253 171.066 352.767C172.404 354.271 174.255 355.022 176.618 355.022Z" fill="#C1631F"/>
<path d="M158 268L220.014 248.104L224 231" stroke="#E18658" stroke-width="3" stroke-miterlimit="10"/>
<path d="M154 265L158 206" stroke="#E18658" stroke-width="3" stroke-miterlimit="10"/>
<path d="M223 211L228 192" stroke="#E18658" stroke-width="3" stroke-miterlimit="10"/>
<path d="M158 202L233 184" stroke="#E18658" stroke-width="3" stroke-miterlimit="10"/>
<path d="M216.461 179.797L213.36 177L158 202L221.572 181.659L227 184.06" stroke="#E18658" stroke-width="3" stroke-miterlimit="10"/>
<path d="M230.478 213.79C227.29 212.225 223.187 213.019 220.822 215.868C218.092 219.153 218.518 224.165 221.512 226.944C225.103 230.276 231.385 229.458 233.929 225.216C236.294 221.27 234.565 215.798 230.478 213.798V213.79Z" stroke="#E18658" stroke-width="3" stroke-miterlimit="10"/>
<path d="M157 203C156.607 203.558 154.249 206.763 150.027 206.988C145.478 207.229 142.426 203.824 142 203.325" stroke="#E18658" stroke-width="3" stroke-miterlimit="10"/>
<path d="M139 265L142 206" stroke="#E18658" stroke-width="3" stroke-miterlimit="10"/>
<path d="M139 268L82.2687 248.873L78 224" stroke="#E18658" stroke-width="3" stroke-miterlimit="10"/>
<path d="M81.4776 205.79C78.29 204.225 74.1872 205.019 71.8216 207.868C69.0916 211.153 69.5182 216.165 72.5119 218.944C76.1028 222.276 82.385 221.458 84.9289 217.216C87.2944 213.27 85.5649 207.798 81.4776 205.798V205.79Z" stroke="#E18658" stroke-width="3" stroke-miterlimit="10"/>
<path d="M77.8684 200.428L76 180.152L139 203L83.9267 174L82.8454 179.065" stroke="#E18658" stroke-width="3" stroke-miterlimit="10"/>
<path d="M150 202V169" stroke="#E18658" stroke-width="3" stroke-miterlimit="10"/>
<path d="M153 167L192 183" stroke="#E18658" stroke-width="3" stroke-miterlimit="10"/>
<path d="M145 167L106 181" stroke="#E18658" stroke-width="3" stroke-miterlimit="10"/>
<path d="M164.516 104.017C150.78 98.0428 133.061 101.073 122.857 111.933C111.076 124.466 112.93 143.581 125.83 154.164C141.325 166.871 168.427 163.737 179.388 147.566C189.576 132.532 182.124 111.673 164.508 104.017H164.516Z" stroke="#E18658" stroke-width="3" stroke-miterlimit="10"/>
<path d="M140.342 125.162C138.788 123.997 136.429 123.643 134.765 124.398C132.851 125.277 132.46 127.375 133.757 128.986C135.319 130.929 138.874 131.639 140.803 130.343C142.592 129.141 142.326 126.642 140.334 125.154L140.342 125.162Z" fill="#E18658" stroke="#E18658" stroke-width="3" stroke-miterlimit="10"/>
<path d="M161.736 124.041C159.825 123.799 157.629 124.657 156.589 126.148C155.387 127.873 156.104 129.903 158.015 130.675C160.318 131.604 163.716 130.449 164.717 128.357C165.65 126.406 164.178 124.353 161.728 124.041H161.736Z" fill="#E18658" stroke="#E18658" stroke-width="3" stroke-miterlimit="10"/>
<path d="M152 113C153.854 110.909 157.067 107.814 161.873 105.415C168.168 102.279 173.966 101.963 177 102.003" stroke="#E18658" stroke-width="3" stroke-miterlimit="10"/>
<path d="M152 110C152.911 108.099 154.531 105.225 157.199 102.696C160.689 99.3822 164.162 98.3691 166 98" stroke="#E18658" stroke-width="3" stroke-miterlimit="10"/>
<path d="M159 120.139C160.1 120.008 161.856 119.888 163.862 120.185C166.484 120.578 168.175 121.48 169 122" stroke="#E18658" stroke-width="3" stroke-miterlimit="10"/>
<path d="M131 123C131.731 122.36 132.967 121.436 134.709 120.777C136.992 119.911 138.975 119.956 140 120.046" stroke="#E18658" stroke-width="3" stroke-miterlimit="10"/>
<path d="M163 148C160.222 149.546 155.737 151.577 150.366 151.943C143.344 152.419 138.44 149.783 136 148.149" stroke="#E18658" stroke-width="3" stroke-miterlimit="10"/>
<path d="M155.13 270C154.71 270.47 152.21 273.18 147.95 273.55C143.36 273.95 140.41 271.31 140 270.93" stroke="#E18658" stroke-width="3" stroke-miterlimit="10"/>
</svg>
