<svg width="298" height="385" viewBox="0 0 298 385" fill="none" xmlns="http://www.w3.org/2000/svg">
<rect width="298" height="385" fill="#E2D6C6"/>
<path d="M275 341.196L257.503 328H247.003L260.997 338.554H233V343.837H260.997L247.003 354.391H257.503L275 341.196Z" fill="#C1631F"/>
<path d="M42.4277 339.571C42.4277 340.87 42.1396 341.998 41.5635 342.955C40.9873 343.912 40.167 344.654 39.1025 345.182C38.0479 345.699 36.7881 345.958 35.3232 345.958H29.2588V354H26.4609V333.36H35.1475C37.4619 333.36 39.2539 333.902 40.5234 334.986C41.793 336.07 42.4277 337.599 42.4277 339.571ZM39.6152 339.601C39.6152 336.935 38.0137 335.602 34.8105 335.602H29.2588V343.746H34.9277C36.4902 343.746 37.6621 343.404 38.4434 342.721C39.2246 342.027 39.6152 340.987 39.6152 339.601ZM49.2686 345.431V354H46.4707V333.36H56.1826C58.5068 333.36 60.2988 333.883 61.5586 334.928C62.8281 335.963 63.4629 337.408 63.4629 339.264C63.4629 340.797 63.0137 342.086 62.1152 343.131C61.2266 344.176 59.9961 344.835 58.4238 345.108L64.2832 354H61.0605L55.6992 345.431H49.2686ZM60.6504 339.293C60.6504 338.092 60.2402 337.179 59.4199 336.554C58.6094 335.919 57.4375 335.602 55.9043 335.602H49.2686V343.219H56.0215C57.4961 343.219 58.6338 342.877 59.4346 342.193C60.2451 341.5 60.6504 340.533 60.6504 339.293ZM87.5889 343.585C87.5889 345.792 87.1689 347.696 86.3291 349.298C85.499 350.899 84.3174 352.135 82.7842 353.004C81.251 353.863 79.4346 354.293 77.335 354.293C75.2256 354.293 73.4043 353.863 71.8711 353.004C70.3477 352.145 69.1709 350.914 68.3408 349.312C67.5205 347.711 67.1104 345.802 67.1104 343.585C67.1104 341.378 67.5156 339.493 68.3262 337.931C69.1465 336.358 70.3184 335.152 71.8418 334.312C73.375 333.473 75.2158 333.053 77.3643 333.053C79.4736 333.053 81.29 333.468 82.8135 334.298C84.3467 335.128 85.5234 336.329 86.3438 337.901C87.1738 339.464 87.5889 341.358 87.5889 343.585ZM84.7324 343.585C84.7324 341.017 84.0879 339 82.7988 337.535C81.5195 336.07 79.708 335.338 77.3643 335.338C75.001 335.338 73.1748 336.061 71.8857 337.506C70.5967 338.951 69.9521 340.978 69.9521 343.585C69.9521 345.304 70.2451 346.798 70.8311 348.067C71.417 349.327 72.2617 350.304 73.3652 350.997C74.4688 351.681 75.792 352.022 77.335 352.022C79.7178 352.022 81.5439 351.29 82.8135 349.825C84.0928 348.351 84.7324 346.271 84.7324 343.585ZM109.269 343.468C109.269 345.646 108.844 347.521 107.994 349.093C107.154 350.665 105.978 351.876 104.464 352.726C102.96 353.575 101.212 354 99.2197 354H91.5V333.36H98.3262C101.822 333.36 104.518 334.239 106.412 335.997C108.316 337.745 109.269 340.235 109.269 343.468ZM106.456 343.468C106.456 340.909 105.753 338.961 104.347 337.623C102.95 336.275 100.924 335.602 98.2676 335.602H94.2979V351.759H98.8975C100.431 351.759 101.759 351.422 102.882 350.748C104.015 350.074 104.894 349.117 105.519 347.877C106.144 346.637 106.456 345.167 106.456 343.468ZM121.427 354.293C119.737 354.293 118.263 353.98 117.003 353.355C115.743 352.73 114.767 351.837 114.073 350.675C113.38 349.513 113.033 348.121 113.033 346.5V333.36H115.831V346.266C115.831 348.15 116.31 349.581 117.267 350.558C118.224 351.534 119.605 352.022 121.412 352.022C123.268 352.022 124.708 351.52 125.733 350.514C126.769 349.498 127.286 348.019 127.286 346.075V333.36H130.069V346.236C130.069 347.906 129.713 349.342 129 350.543C128.297 351.744 127.296 352.672 125.997 353.326C124.708 353.971 123.185 354.293 121.427 354.293ZM137.657 346.09V354H134.859V333.36H137.657V343.702L147.604 333.36H150.899L142.11 342.325L152.071 354H148.6L140.353 344.039L137.657 346.09ZM162.955 335.646V354H160.172V335.646H153.082V333.36H170.045V335.646H162.955ZM189.469 351.715V354H173.209V333.36H188.868V335.646H176.007V342.267H187.989V344.522H176.007V351.715H189.469ZM196.017 345.431V354H193.219V333.36H202.931C205.255 333.36 207.047 333.883 208.307 334.928C209.576 335.963 210.211 337.408 210.211 339.264C210.211 340.797 209.762 342.086 208.863 343.131C207.975 344.176 206.744 344.835 205.172 345.108L211.031 354H207.809L202.447 345.431H196.017ZM207.398 339.293C207.398 338.092 206.988 337.179 206.168 336.554C205.357 335.919 204.186 335.602 202.652 335.602H196.017V343.219H202.77C204.244 343.219 205.382 342.877 206.183 342.193C206.993 341.5 207.398 340.533 207.398 339.293Z" fill="#C1631F"/>
<path d="M167.241 261.933L180.039 241.072" stroke="#E18658" stroke-width="3"/>
<path d="M179.315 239.029C178.152 241.178 175.701 242.857 171.854 243.89C168.014 244.921 162.99 245.245 157.081 244.819C145.277 243.967 130.289 240.146 114.956 233.511C99.6241 226.876 86.9714 218.737 78.899 210.987C74.8581 207.108 72.0245 203.383 70.5456 200.051C69.064 196.712 69.0141 193.951 70.1766 191.802C71.3392 189.653 73.7907 187.975 77.6375 186.942C81.4771 185.911 86.5013 185.586 92.4101 186.012C104.214 186.864 119.203 190.686 134.535 197.321C149.867 203.955 162.52 212.095 170.592 219.844C174.633 223.723 177.467 227.448 178.946 230.781C180.427 234.119 180.477 236.88 179.315 239.029Z" stroke="#E18658" stroke-width="3"/>
<path d="M68.5771 192.715C65.0931 200.186 58.1733 215.301 58.5439 215.895C69.0765 232.752 109.181 268.035 166.888 261.513" stroke="#E18658" stroke-width="3"/>
<path d="M68.6816 208.402C73.9392 215.566 87.0731 230.582 97.5485 233.333" stroke="#E18658" stroke-width="3"/>
<path d="M72.6182 221.523C77.9952 227.179 91.4276 239.034 102.141 241.205" stroke="#E18658" stroke-width="3"/>
<path d="M90.3896 103.939C86.7237 115.905 70.3199 136.778 79.0756 150.795C88.7849 166.339 123.943 169.666 127.753 164.052C131.563 158.437 144.218 142.449 147.786 124.961" stroke="#E18658" stroke-width="3"/>
<path d="M146.974 124.099C145.609 127.023 141.583 129.113 135.299 129.612C129.137 130.1 121.345 128.985 113.43 126.079C105.515 123.173 99.1143 119.078 95.1458 114.869C91.0979 110.577 89.9168 106.576 91.2822 103.652C92.6476 100.727 96.6732 98.6375 102.958 98.139C109.12 97.6502 116.912 98.7654 124.827 101.671C132.742 104.577 139.142 108.673 143.111 112.881C147.159 117.173 148.34 121.175 146.974 124.099Z" stroke="#E18658" stroke-width="3"/>
<path d="M83.7715 142.143C84.5369 145.722 89.9385 152.689 105.422 151.926" stroke="#E18658" stroke-width="3"/>
<path d="M79.835 142.143C80.6004 147.063 86.002 156.642 101.485 155.592" stroke="#E18658" stroke-width="3"/>
<path d="M133.545 169.53C133.299 175.841 135.121 189.936 144.374 195.833C155.94 203.204 210.549 183.772 210.123 178.383C209.697 172.993 210.368 159.028 201.522 152.011" stroke="#E18658" stroke-width="3"/>
<path d="M201.07 152.198C201.263 152.76 201.128 153.751 199.847 155.253C198.613 156.7 196.559 158.316 193.768 159.985C188.205 163.311 180.006 166.67 170.494 169.234C160.982 171.798 152.063 173.054 145.354 173.036C141.988 173.027 139.268 172.698 137.335 172.105C135.329 171.489 134.595 170.732 134.403 170.17C134.21 169.608 134.345 168.617 135.626 167.115C136.86 165.668 138.913 164.052 141.704 162.383C147.268 159.057 155.467 155.698 164.979 153.134C174.491 150.57 183.41 149.314 190.119 149.332C193.485 149.341 196.205 149.67 198.137 150.263C200.144 150.879 200.878 151.636 201.07 152.198Z" stroke="#E18658" stroke-width="3"/>
<path d="M203.83 164.119C198.253 168.274 184.541 176.847 174.307 177.896" stroke="#E18658" stroke-width="3"/>
<path d="M207.766 169.695C204.172 172.861 195.336 179.393 188.74 180.192" stroke="#E18658" stroke-width="3"/>
</svg>
