<svg width="298" height="385" viewBox="0 0 298 385" fill="none" xmlns="http://www.w3.org/2000/svg">
<rect width="298" height="385" fill="#E2D6C6"/>
<path d="M269 343.196L251.503 330H241.003L254.997 340.554H227V345.837H254.997L241.003 356.391H251.503L269 343.196Z" fill="#C1631F"/>
<path d="M44.4277 341.571C44.4277 342.87 44.1396 343.998 43.5635 344.955C42.9873 345.912 42.167 346.654 41.1025 347.182C40.0479 347.699 38.7881 347.958 37.3232 347.958H31.2588V356H28.4609V335.36H37.1475C39.4619 335.36 41.2539 335.902 42.5234 336.986C43.793 338.07 44.4277 339.599 44.4277 341.571ZM41.6152 341.601C41.6152 338.935 40.0137 337.602 36.8105 337.602H31.2588V345.746H36.9277C38.4902 345.746 39.6621 345.404 40.4434 344.721C41.2246 344.027 41.6152 342.987 41.6152 341.601ZM51.2686 347.431V356H48.4707V335.36H58.1826C60.5068 335.36 62.2988 335.883 63.5586 336.928C64.8281 337.963 65.4629 339.408 65.4629 341.264C65.4629 342.797 65.0137 344.086 64.1152 345.131C63.2266 346.176 61.9961 346.835 60.4238 347.108L66.2832 356H63.0605L57.6992 347.431H51.2686ZM62.6504 341.293C62.6504 340.092 62.2402 339.179 61.4199 338.554C60.6094 337.919 59.4375 337.602 57.9043 337.602H51.2686V345.219H58.0215C59.4961 345.219 60.6338 344.877 61.4346 344.193C62.2451 343.5 62.6504 342.533 62.6504 341.293ZM89.5889 345.585C89.5889 347.792 89.1689 349.696 88.3291 351.298C87.499 352.899 86.3174 354.135 84.7842 355.004C83.251 355.863 81.4346 356.293 79.335 356.293C77.2256 356.293 75.4043 355.863 73.8711 355.004C72.3477 354.145 71.1709 352.914 70.3408 351.312C69.5205 349.711 69.1104 347.802 69.1104 345.585C69.1104 343.378 69.5156 341.493 70.3262 339.931C71.1465 338.358 72.3184 337.152 73.8418 336.312C75.375 335.473 77.2158 335.053 79.3643 335.053C81.4736 335.053 83.29 335.468 84.8135 336.298C86.3467 337.128 87.5234 338.329 88.3438 339.901C89.1738 341.464 89.5889 343.358 89.5889 345.585ZM86.7324 345.585C86.7324 343.017 86.0879 341 84.7988 339.535C83.5195 338.07 81.708 337.338 79.3643 337.338C77.001 337.338 75.1748 338.061 73.8857 339.506C72.5967 340.951 71.9521 342.978 71.9521 345.585C71.9521 347.304 72.2451 348.798 72.8311 350.067C73.417 351.327 74.2617 352.304 75.3652 352.997C76.4688 353.681 77.792 354.022 79.335 354.022C81.7178 354.022 83.5439 353.29 84.8135 351.825C86.0928 350.351 86.7324 348.271 86.7324 345.585ZM97.7334 356.293C95.9854 356.293 94.5938 355.844 93.5586 354.945C92.5234 354.037 91.8398 352.68 91.5078 350.873L94.2471 350.419C94.4229 351.552 94.8184 352.436 95.4336 353.07C96.0488 353.705 96.8203 354.022 97.748 354.022C98.7637 354.022 99.5645 353.676 100.15 352.982C100.736 352.279 101.029 351.254 101.029 349.906V337.646H97.0596V335.36H103.812V349.848C103.812 351.85 103.271 353.427 102.187 354.579C101.103 355.722 99.6182 356.293 97.7334 356.293ZM124.76 353.715V356H108.5V335.36H124.159V337.646H111.298V344.267H123.28V346.522H111.298V353.715H124.76ZM131.308 348.09V356H128.51V335.36H131.308V345.702L141.254 335.36H144.55L135.761 344.325L145.722 356H142.25L134.003 346.039L131.308 348.09ZM156.605 337.646V356H153.822V337.646H146.732V335.36H163.695V337.646H156.605ZM183.119 353.715V356H166.859V335.36H182.519V337.646H169.657V344.267H181.64V346.522H169.657V353.715H183.119ZM189.667 347.431V356H186.869V335.36H196.581C198.905 335.36 200.697 335.883 201.957 336.928C203.227 337.963 203.861 339.408 203.861 341.264C203.861 342.797 203.412 344.086 202.514 345.131C201.625 346.176 200.395 346.835 198.822 347.108L204.682 356H201.459L196.098 347.431H189.667ZM201.049 341.293C201.049 340.092 200.639 339.179 199.818 338.554C199.008 337.919 197.836 337.602 196.303 337.602H189.667V345.219H196.42C197.895 345.219 199.032 344.877 199.833 344.193C200.644 343.5 201.049 342.533 201.049 341.293Z" fill="#C1631F"/>
<path d="M138.758 214.84L143.678 221.086L130.327 228.336L125.586 222.287L138.758 214.84Z" stroke="#E18658" stroke-width="2" stroke-miterlimit="10"/>
<path d="M114.715 207.084L127.524 210.721" stroke="#E18658" stroke-width="2"/>
<path d="M120.363 244.559L116.13 247.577" stroke="#E18658" stroke-width="2"/>
<path d="M152.934 222.405L155.7 222.868L156.244 220.875L159.011 221.339L159.378 219.145L161.959 219.578L162.28 217.662L165.055 218.127L165.456 215.735L167.833 216.133L168.012 213.811L170.815 214.11L170.96 212.05L173.336 212.448L173.648 210.587L176.349 210.869L176.689 208.842L179.363 209.29L179.526 207.062L182.136 207.321L182.242 205.433L184.852 205.692L184.958 203.805L187.511 204.403L187.451 202.309L189.828 202.707L190.167 200.68L192.377 200.88L192.5 198.947L195.072 199.377L195.572 197.589L197.948 197.987L198.288 195.96L200.868 196.392L200.976 194.498L203.527 195.104L203.692 192.869L206.663 193.366L205.933 191.681L208.96 191.846L207.879 189.752L210.767 189.544L209.184 188.058L212.01 186.968L209.524 186.031L211.051 184.203L208.423 184.113L208.763 182.086L206.691 182.26L207.058 180.066L204.632 181.223L203.698 179.503L201.291 180.484L199.734 178.839L198.388 180.779L196.216 180.415L195.847 182.616L193.266 182.184L192.899 184.377L189.928 183.879L189.532 186.247L186.756 185.782L186.361 188.142L183.789 187.711L183.45 189.738L180.878 189.307L180.481 191.674L177.112 191.11L176.63 193.984L174.059 193.553L173.691 195.747L170.916 195.282L170.547 197.483L167.975 197.052L167.551 199.586L164.97 199.153L164.603 201.347L161.632 200.849L161.265 203.042L158.294 202.545L157.897 204.912L154.927 204.414L154.53 206.782L151.56 206.284L151.192 208.478L148.417 208.013L147.992 210.546L144.827 210.016L144.458 212.217L142.32 207.944L136.379 206.948L122.402 213.813L118.381 220.783L118.3 240.746L121.096 244.682L152.934 222.405Z" stroke="#E18658" stroke-width="2" stroke-miterlimit="10"/>
<path d="M118.052 240.55L114.307 243.456L116.925 247.279C92.44 257.567 84.4353 261.315 83.385 262.223C83.2292 262.354 82.4796 263.064 81.289 263.212C80.909 263.256 80.1677 263.289 79.0397 262.835C77.5084 262.223 75.0389 260.651 73.8754 257.957C73.5875 257.28 72.8063 255.213 73.7311 251.917C75.9452 244.063 86.1367 235.418 87.947 233.909" stroke="#E18658" stroke-width="2" stroke-miterlimit="10"/>
<path d="M115.068 245.01L115.385 192.479C115.426 192.355 115.825 190.986 114.666 189.853C114.503 189.695 113.555 188.794 112.113 188.813C110.751 188.83 109.995 189.642 109.825 189.825C108.997 190.707 109.155 191.737 109.199 191.948L108.633 244.83" stroke="#E18658" stroke-width="2" stroke-miterlimit="10"/>
<path d="M107.898 243.313C108.024 243.596 108.332 244.13 109.003 244.564C110.161 245.321 111.792 245.383 112.947 244.944C113.959 244.56 114.4 243.88 114.561 243.586" stroke="#E18658" stroke-width="2" stroke-miterlimit="10"/>
<path d="M108.639 207.559L88.8549 219.055L87.33 234.177C87.8471 234.474 89.0078 235.057 91.2549 235.692C95.171 236.802 100.273 237.487 103.71 237.553C106.707 237.61 107.825 237.19 108.213 236.996" stroke="#E18658" stroke-width="2" stroke-miterlimit="10"/>
<path d="M180.353 163.198C180.405 166.145 178.901 172.12 172.473 172.442C166.045 172.763 162.377 167.396 161.347 164.671V157.973C158.669 168.289 155.228 189.591 162.892 192.27" stroke="#E18658" stroke-width="3"/>
<path d="M148.677 170.034C145.742 172.267 138.263 176.063 131.835 173.384C125.407 170.704 129.878 167.087 132.917 165.613C127.818 167.355 117.094 169.445 114.993 163.872C112.891 158.298 120.71 154.851 124.882 153.823C120.916 152.082 113.756 147.393 116.847 142.57C119.937 137.747 126.066 137.255 128.745 137.613C127.354 133.683 125.407 125.233 128.745 122.876C132.082 120.518 137.243 119.482 139.406 119.258C141.57 119.035 145.587 122.876 145.587 122.876C146.257 120.777 147.132 117.38 151.304 114.167C154.411 111.774 156.888 112.478 159.803 113.095C162.626 113.694 165.489 115.025 165.366 117.383C165.242 119.741 165.314 122.027 165.366 122.876C168.044 121.536 174.513 119.258 178.963 120.866C183.413 122.474 182.981 126.002 182.208 127.565C181.229 129.128 178.84 132.227 177.109 132.12C174.946 131.986 182.607 131.07 185.762 132.12C190.982 133.856 194.26 136.675 193.488 142.57C192.87 147.286 190.037 149.09 188.698 149.402C191.067 149.715 195.806 150.823 195.806 152.752C195.806 155.163 197.011 158.834 194.569 161.594C191.13 165.482 186.38 166.685 180.199 163.068" stroke="#E18658" stroke-width="3"/>
<path d="M140.488 194.28C144.984 185.96 152.763 167.185 147.914 158.643" stroke="#E18658" stroke-width="3"/>
<path d="M118.922 128.367C118.951 130.016 118.096 133.359 114.442 133.539C110.787 133.719 108.702 130.715 108.116 129.191V125.443C106.593 131.215 104.637 143.133 108.994 144.633" stroke="#E18658" stroke-width="3"/>
<path d="M100.911 132.191C99.242 133.441 94.9898 135.565 91.335 134.065C87.6801 132.566 90.2221 130.542 91.95 129.718C89.0507 130.692 82.9536 131.862 81.7588 128.743C80.5639 125.625 85.0095 123.696 87.3816 123.121C85.1266 122.147 81.0558 119.523 82.813 116.825C84.5701 114.127 88.0551 113.852 89.5779 114.052C88.7872 111.853 87.6803 107.125 89.5779 105.806C91.4755 104.487 94.41 103.907 95.64 103.782C96.87 103.657 99.1543 105.806 99.1543 105.806C99.535 104.632 100.033 102.731 102.405 100.934C104.171 99.5952 105.58 99.9886 107.237 100.334C108.842 100.669 110.47 101.414 110.4 102.733C110.33 104.052 110.371 105.331 110.4 105.806C111.923 105.057 115.601 103.782 118.131 104.682C120.662 105.581 120.416 107.555 119.976 108.43C119.42 109.304 118.061 111.038 117.077 110.978C115.847 110.903 120.203 110.391 121.997 110.978C124.965 111.95 126.829 113.527 126.39 116.825C126.038 119.464 124.428 120.473 123.666 120.648C125.013 120.823 127.708 121.442 127.708 122.522C127.708 123.871 128.393 125.925 127.005 127.469C125.049 129.644 122.348 130.317 118.834 128.294" stroke="#E18658" stroke-width="3"/>
<path d="M96.2539 145.755C98.8101 141.1 103.233 130.596 100.476 125.816" stroke="#E18658" stroke-width="3"/>
</svg>
