<svg width="120" height="120" viewBox="0 0 120 120" fill="none" xmlns="http://www.w3.org/2000/svg">
<path d="M83.4997 69.2395C83.5471 72.1601 82.1625 78.081 76.2445 78.3996C70.3264 78.7183 66.9501 73.3992 66.0017 70.6998V64.062C63.5359 74.2842 60.3682 95.3924 67.4243 98.0475" stroke="#C1631F" stroke-width="2"/>
<path d="M54.3366 76.0131C51.6337 78.2257 44.7483 81.9871 38.8302 79.332C32.9122 76.6769 37.0283 73.0925 39.8261 71.6322C35.1316 73.358 25.2589 75.429 23.3241 69.9064C21.3894 64.3837 28.5878 60.9675 32.4288 59.9497C28.7774 58.2238 22.1859 53.5774 25.0311 48.7982C27.8763 44.019 33.5193 43.5322 35.9851 43.8862C34.7048 39.9921 32.9124 31.6196 35.9851 29.2831C39.0579 26.9466 43.8094 25.92 45.8011 25.6987C47.7928 25.4774 51.4915 29.2831 51.4915 29.2831C52.108 27.2033 52.9141 23.8376 56.7551 20.6539C59.6155 18.283 61.8957 18.9798 64.5794 19.5919C67.1789 20.1848 69.8146 21.5036 69.7008 23.8401C69.587 26.1766 69.6534 28.4423 69.7008 29.2831C72.1667 27.9555 78.1226 25.6987 82.2197 27.2918C86.3168 28.8848 85.9185 32.3807 85.2072 33.9296C84.3062 35.4784 82.1059 38.5495 80.5126 38.4433C78.5209 38.3105 85.5745 37.4032 88.4792 38.4433C93.2848 40.164 96.3035 42.9569 95.5922 48.7982C95.0231 53.4712 92.415 55.259 91.1821 55.5688C93.3634 55.8785 97.7261 56.976 97.7261 58.8877C97.7261 61.2773 98.8358 64.9146 96.588 67.6496C93.4217 71.5021 89.0482 72.6943 83.3578 69.1099" stroke="#C1631F" stroke-width="2"/>
<path d="M46.7964 100.039C50.9354 91.795 58.0973 73.1906 53.6327 64.7261" stroke="#C1631F" stroke-width="2"/>
</svg>
