<svg width="122" height="158" viewBox="0 0 122 158" fill="none" xmlns="http://www.w3.org/2000/svg">
<path d="M19.8779 130.36L11.4551 151H8.55469L0.131836 130.36H3.07617L8.78906 144.892C9.02344 145.487 9.2334 146.093 9.41895 146.708C9.61426 147.323 9.81445 147.934 10.0195 148.539C10.2148 147.934 10.4199 147.299 10.6348 146.635C10.8496 145.971 11.0547 145.39 11.25 144.892L16.9336 130.36H19.8779ZM23.1152 144.965L20.7422 151H17.8418L26.2646 130.36H29.4434L37.7344 151H34.8779L32.5195 144.965H23.1152ZM27.8174 132.47C27.6514 133.017 27.4512 133.627 27.2168 134.301C26.9922 134.965 26.7822 135.551 26.5869 136.059L23.9648 142.782H31.6846L29.0332 135.971C28.8965 135.629 28.7158 135.146 28.4912 134.521C28.2666 133.896 28.042 133.212 27.8174 132.47ZM53.4814 148.715V151H40.2539V130.36H43.0518V148.715H53.4814ZM59.4434 137.289V151H56.9531V130.36H60.2051L71.3672 148.056C71.25 146.132 71.1914 144.745 71.1914 143.896V130.36H73.7109V151H70.3418L59.2969 133.422C59.3164 134.066 59.3457 134.711 59.3848 135.355C59.4238 136 59.4434 136.645 59.4434 137.289ZM98.0713 140.585C98.0713 142.733 97.6514 144.613 96.8115 146.225C95.9814 147.826 94.7998 149.071 93.2666 149.96C91.7334 150.849 89.917 151.293 87.8174 151.293C85.4053 151.293 83.3838 150.746 81.7529 149.652L79.9951 151.776H77.2119L80.1416 148.246C78.4424 146.371 77.5928 143.817 77.5928 140.585C77.5928 138.378 77.998 136.493 78.8086 134.931C79.6289 133.358 80.8008 132.152 82.3242 131.312C83.8574 130.473 85.6982 130.053 87.8467 130.053C90.2588 130.053 92.2803 130.59 93.9111 131.664L95.6836 129.525H98.4961L95.5518 133.07C96.3916 133.998 97.0215 135.092 97.4414 136.352C97.8613 137.602 98.0713 139.013 98.0713 140.585ZM80.4346 140.585C80.4346 142.821 80.9277 144.667 81.9141 146.122L92.2705 133.627C91.0596 132.768 89.585 132.338 87.8467 132.338C85.4834 132.338 83.6572 133.061 82.3682 134.506C81.0791 135.951 80.4346 137.978 80.4346 140.585ZM95.2148 140.585C95.2148 138.407 94.7363 136.61 93.7793 135.194L83.3936 147.689C84.5752 148.578 86.0498 149.022 87.8174 149.022C90.2002 149.022 92.0264 148.29 93.2959 146.825C94.5752 145.351 95.2148 143.271 95.2148 140.585ZM119.751 140.468C119.751 142.646 119.326 144.521 118.477 146.093C117.637 147.665 116.46 148.876 114.946 149.726C113.442 150.575 111.694 151 109.702 151H101.982V130.36H108.809C112.305 130.36 115 131.239 116.895 132.997C118.799 134.745 119.751 137.235 119.751 140.468ZM116.938 140.468C116.938 137.909 116.235 135.961 114.829 134.623C113.433 133.275 111.406 132.602 108.75 132.602H104.78V148.759H109.38C110.913 148.759 112.241 148.422 113.364 147.748C114.497 147.074 115.376 146.117 116.001 144.877C116.626 143.637 116.938 142.167 116.938 140.468Z" fill="#2C2A29"/>
<path d="M89.8944 65.854C89.9547 69.5661 88.1948 77.0915 80.673 77.4964C73.1512 77.9014 68.86 71.1409 67.6546 67.71V59.2734C64.5205 72.2658 60.4944 99.0941 69.4627 102.469" stroke="#C1631F" stroke-width="3"/>
<path d="M52.8285 74.4632C49.3931 77.2753 40.6418 82.0561 33.1201 78.6814C25.5983 75.3068 30.8298 70.7511 34.3858 68.895C28.4191 71.0885 15.871 73.7207 13.412 66.7015C10.9529 59.6823 20.102 55.3402 24.9839 54.0466C20.343 51.8531 11.9653 45.9475 15.5815 39.8732C19.1977 33.7989 26.3699 33.1802 29.504 33.6301C27.8767 28.6807 25.5986 18.0394 29.504 15.0697C33.4094 12.1001 39.4486 10.7952 41.98 10.514C44.5114 10.2328 49.2124 15.0697 49.2124 15.0697C49.996 12.4263 51.0205 8.14852 55.9025 4.10203C59.5379 1.0887 62.436 1.97434 65.8471 2.75233C69.1509 3.50586 72.5009 5.18206 72.3563 8.15173C72.2116 11.1214 72.296 14.0011 72.3563 15.0697C75.4904 13.3824 83.0603 10.514 88.2677 12.5388C93.4751 14.5635 92.9688 19.0068 92.0647 20.9753C90.9196 22.9439 88.1231 26.8472 86.098 26.7122C83.5666 26.5435 92.5316 25.3903 96.2234 26.7122C102.331 28.8992 106.168 32.449 105.264 39.8732C104.541 45.8126 101.226 48.0849 99.6588 48.4786C102.431 48.8723 107.976 50.2671 107.976 52.6968C107.976 55.734 109.387 60.357 106.53 63.8331C102.505 68.7297 96.9467 70.2449 89.7142 65.6892" stroke="#C1631F" stroke-width="3"/>
<path d="M43.2451 105C48.5058 94.5216 57.6085 70.8756 51.9341 60.1172" stroke="#C1631F" stroke-width="3"/>
</svg>
