<svg width="99" height="106" viewBox="0 0 99 106" fill="none" xmlns="http://www.w3.org/2000/svg">
<path d="M78.8944 65.854C78.9547 69.5661 77.1948 77.0915 69.673 77.4964C62.1512 77.9014 57.86 71.1409 56.6546 67.71V59.2734C53.5205 72.2658 49.4944 99.0941 58.4627 102.469" stroke="#C1631F" stroke-width="3"/>
<path d="M41.8285 74.4632C38.3931 77.2753 29.6418 82.0561 22.1201 78.6814C14.5983 75.3068 19.8298 70.7511 23.3858 68.895C17.4191 71.0885 4.871 73.7207 2.41196 66.7015C-0.0470751 59.6823 9.10198 55.3402 13.9839 54.0466C9.343 51.8531 0.965278 45.9475 4.58151 39.8732C8.19774 33.7989 15.3699 33.1802 18.504 33.6301C16.8767 28.6807 14.5986 18.0394 18.504 15.0697C22.4094 12.1001 28.4486 10.7952 30.98 10.514C33.5114 10.2328 38.2124 15.0697 38.2124 15.0697C38.996 12.4263 40.0205 8.14852 44.9025 4.10203C48.5379 1.0887 51.436 1.97434 54.8471 2.75233C58.1509 3.50586 61.5009 5.18206 61.3563 8.15173C61.2116 11.1214 61.296 14.0011 61.3563 15.0697C64.4904 13.3824 72.0603 10.514 77.2677 12.5388C82.4751 14.5635 81.9688 19.0068 81.0647 20.9753C79.9196 22.9439 77.1231 26.8472 75.098 26.7122C72.5666 26.5435 81.5316 25.3903 85.2234 26.7122C91.3313 28.8992 95.168 32.449 94.264 39.8732C93.5407 45.8126 90.2259 48.0849 88.6588 48.4786C91.4313 48.8723 96.9762 50.2671 96.9762 52.6968C96.9762 55.734 98.3866 60.357 95.5297 63.8331C91.5054 68.7297 85.9467 70.2449 78.7142 65.6892" stroke="#C1631F" stroke-width="3"/>
<path d="M32.2451 105C37.5058 94.5216 46.6085 70.8756 40.9341 60.1172" stroke="#C1631F" stroke-width="3"/>
</svg>
