<svg width="122" height="68" viewBox="0 0 122 68" fill="none" xmlns="http://www.w3.org/2000/svg">
<path d="M16 30C19 33.1667 28.3 39 41.5 37" stroke="#C1631F" stroke-width="2" stroke-linecap="round"/>
<path d="M16 41C19.6471 44.4196 30.9529 50.7189 47 48.5592" stroke="#C1631F" stroke-width="2" stroke-linecap="round"/>
<path d="M120 13C120 13.5656 119.742 14.2094 119.061 14.9364C118.376 15.6683 117.316 16.4224 115.865 17.1717C112.967 18.669 108.707 20.0471 103.359 21.2154C92.6809 23.5486 77.8808 25 61.5 25C45.1192 25 30.3191 23.5486 19.6406 21.2154C14.2932 20.0471 10.0334 18.669 7.13475 17.1717C5.68417 16.4224 4.62418 15.6683 3.9387 14.9364C3.25781 14.2094 3 13.5656 3 13C3 12.4344 3.25781 11.7906 3.9387 11.0636C4.62418 10.3317 5.68417 9.57759 7.13475 8.82828C10.0334 7.33096 14.2932 5.95291 19.6406 4.78457C30.3191 2.45144 45.1192 1 61.5 1C77.8808 1 92.6809 2.45144 103.359 4.78457C108.707 5.95291 112.967 7.33096 115.865 8.82828C117.316 9.57759 118.376 10.3317 119.061 11.0636C119.742 11.7906 120 12.4344 120 13Z" stroke="#C1631F" stroke-width="2"/>
<path d="M2.03597 15C1.5422 21.0275 -0.0251771 28.5729 2.03597 36.9573C11.6156 75.9256 108.69 77.494 119.059 38.6794C121.464 29.6731 121.824 20.5108 119.059 15" stroke="#C1631F" stroke-width="2" stroke-linecap="round"/>
</svg>
