<svg width="57" height="50" viewBox="0 0 57 50" fill="none" xmlns="http://www.w3.org/2000/svg">
<path d="M4.33433 5.49118H9.01164L10.5899 3.05719L14.4637 4.27418L16.5728 2L20.4467 6.37627L23.2588 4.18813L27.477 8.68733L29.5143 6.37627L33.4743 10.4452L35.5834 8.68733L37.5203 11.9449L39.2851 10.4329L44.0341 16.1614C45.1532 17.9439 45.8706 19.5174 46.3297 20.6852C47.5923 23.8936 47.8936 26.5366 48.0945 28.3805C48.2953 30.1999 48.3958 31.1096 48.2666 32.1545C47.8793 35.5596 45.9567 37.969 44.9237 39.2475C42.0685 42.7632 38.3812 44.5826 36.3008 45.4308L26.6161 48L27.4913 45.4308L20.2745 46.1929L21.9819 43.9188H15.8698L17.1037 41.8044L10.762 40.5997L14.105 39.0877L7.06037 36.5184L10.5755 35.0064L5.29561 30.7777H8.6386L5.46779 27.1635L8.81077 25.9588L4.40606 22.0374H7.74905L3 16.1491L5.63996 14.9444L3 12.83L4.93692 11.1705L3 8.66274H5.1091L4.30563 5.46659C10.5325 9.97809 16.745 14.5019 22.9718 19.0134L25.0522 22.566L46.0571 33.6788L56 35.0064" stroke="#C1631F" stroke-width="2" stroke-miterlimit="10"/>
</svg>
