<svg width="75" height="131" viewBox="0 0 75 131" fill="none" xmlns="http://www.w3.org/2000/svg">
<path d="M20.1618 2.9241L24.2169 5.7572C24.1019 5.30731 24.3176 4.79662 24.2169 4.33457L31.6225 7.83642C31.4931 7.31358 31.7663 6.71777 31.6225 6.19493L39.7328 12.311L40.9694 9.9278L43.0545 17.0896L45.5566 14.9982V21.7101L48.6627 20.8103L47.1528 27.6681C48.0156 27.5587 48.9503 27.8018 49.7987 27.6681L46.6207 36.1674H49.7987C46.4626 44.0101 40.7106 50.0897 30.6447 50.0897C29.2067 50.0897 29.2067 52.5215 27.7687 52.5215C23.4548 53.7374 17.7028 50.0897 13.6333 51.0259C14.3954 50.6368 15.0138 50.041 15.7472 49.6155L9.39125 45.8583L11.3325 43.8885L5.86818 41.3837C6.68784 41.177 7.34931 40.569 8.16896 40.338L3.94128 34.9636H7.11923L2 28.8475C6.09826 28.4584 3.94128 22.8652 3.76872 20.3482C4.77531 20.9076 6.2133 19.6917 6.2133 19.6917V12.3961H9.08928C11.9652 8.74836 9.08928 5.1006 13.8203 2M13.8203 2C12.7561 3.55638 14.1366 5.80583 13.8203 2ZM13.8203 2C17.7172 24.5553 26.3451 46.4419 45.0389 65.8966C49.3529 70.7603 43.601 78.0559 47.9149 82.9195C53.6669 90.2151 63.7328 95.0788 68.0467 103.59C70.9227 112.102 73.7987 120.613 74 130" stroke="#C1631F" stroke-width="2" stroke-miterlimit="10"/>
</svg>
