<svg width="59" height="51" viewBox="0 0 59 51" fill="none" xmlns="http://www.w3.org/2000/svg">
<path d="M55.2837 10.4599L53.808 14.202L56 16.2244L53.4355 18.9492L55.2837 21.3471L49.2235 23.091L50.7565 26.0216L44.4384 28.0077L46.3582 30.3571L40.6132 32.2584L41.8883 34.4988L37.6619 35.0317L38.7794 36.9088L30.9427 38.9312C28.6218 39.2703 26.659 39.3551 25.212 39.3551C21.2722 39.3551 18.2493 38.7859 16.1433 38.3741C14.0659 37.9624 13.0201 37.7565 11.9169 37.3448C8.27794 35.9763 6.2149 33.6875 5.12608 32.4643C2.13181 29.0734 1.28653 25.5615 1 23.6359L1.2149 15.0861L3.77937 16.5877L5.21204 10.5689L7.18911 12.6398L9.10888 7.74723L11.0573 9.39423L14.3811 4.69544L14.9971 7.84411L20.0544 3L20.6132 6.294L26.9456 3.37542L25.8854 6.05179L30.8854 4.63489L31.1719 7.68668L36.8883 5.38573L35.8281 8.0621L43.8367 6.08812L44.3381 8.58284L47.5043 7.12961L48.7364 9.20046L52.1175 8.42541L51.4585 10.1208L55.255 10.472C48.3066 14.0567 41.3438 17.6292 34.3954 21.2139L29.8109 21.7709L10.914 35.1407L6.30086 42.6975L3.16333 50" stroke="#C1631F" stroke-width="2" stroke-miterlimit="10"/>
</svg>
